G04*
G04 #@! TF.GenerationSoftware,Altium Limited,Altium Designer,23.9.2 (47)*
G04*
G04 Layer_Physical_Order=2*
G04 Layer_Color=16711680*
%FSLAX25Y25*%
%MOIN*%
G70*
G04*
G04 #@! TF.SameCoordinates,32FA3CAB-4A21-4C27-9538-83D2161AB544*
G04*
G04*
G04 #@! TF.FilePolarity,Positive*
G04*
G01*
G75*
%ADD12C,0.01000*%
%ADD102C,0.02000*%
%ADD103C,0.00669*%
%ADD108C,0.08858*%
%ADD109R,0.29528X0.05906*%
%ADD110C,0.06890*%
%ADD111C,0.02362*%
%ADD112O,0.03937X0.08661*%
%ADD113O,0.03937X0.07480*%
%ADD114C,0.06000*%
%ADD115C,0.08000*%
%ADD116C,0.07087*%
%ADD117R,0.07087X0.07087*%
%ADD118C,0.02756*%
%ADD119C,0.05000*%
%ADD120C,0.02559*%
G36*
X545144Y454066D02*
Y454066D01*
X546477Y454066D01*
X549121Y453717D01*
X551696Y453025D01*
X554158Y452002D01*
X556466Y450665D01*
X558578Y449037D01*
X560459Y447147D01*
X562077Y445027D01*
X563403Y442714D01*
X564415Y440247D01*
X565095Y437668D01*
X565431Y435023D01*
X565425Y433690D01*
X564832Y307310D01*
X564832Y307310D01*
X564825Y305908D01*
X564447Y303130D01*
X563711Y300424D01*
X562629Y297837D01*
X561220Y295413D01*
X559507Y293194D01*
X557520Y291215D01*
X555292Y289513D01*
X552862Y288115D01*
X550270Y287045D01*
X547561Y286321D01*
X544781Y285956D01*
X447776D01*
X447776Y285956D01*
X446068Y285928D01*
X442659Y285705D01*
X439272Y285259D01*
X435921Y284592D01*
X432621Y283708D01*
X429386Y282610D01*
X426229Y281302D01*
X423165Y279791D01*
X420206Y278083D01*
X417366Y276185D01*
X414655Y274105D01*
X412087Y271852D01*
X410859Y270664D01*
X406586Y266391D01*
X405292Y265054D01*
X402838Y262256D01*
X400573Y259304D01*
X398505Y256210D01*
X396645Y252987D01*
X394999Y249650D01*
X393575Y246212D01*
X392379Y242688D01*
X391416Y239094D01*
X390690Y235444D01*
X390204Y231755D01*
X389961Y228042D01*
X389930Y226181D01*
Y220600D01*
X389930Y220600D01*
X389930Y218550D01*
X389658Y214459D01*
X389115Y210395D01*
X388303Y206376D01*
X387227Y202419D01*
X385890Y198543D01*
X384299Y194764D01*
X382460Y191099D01*
X380382Y187564D01*
X378075Y184175D01*
X375547Y180947D01*
X372811Y177893D01*
X371344Y176460D01*
X347889Y153547D01*
X346804Y152486D01*
X344437Y150584D01*
X341898Y148920D01*
X339211Y147508D01*
X336399Y146363D01*
X333490Y145494D01*
X330511Y144911D01*
X327489Y144617D01*
X230481D01*
X229628Y144617D01*
X227955Y144950D01*
X226378Y145603D01*
X224960Y146551D01*
X223753Y147757D01*
X222806Y149176D01*
X222153Y150752D01*
X221820Y152426D01*
X221820Y153279D01*
Y164302D01*
X221820Y164302D01*
X221820Y164303D01*
X222052Y165154D01*
X222735Y166782D01*
X223624Y168307D01*
X224705Y169702D01*
X225959Y170945D01*
X227364Y172013D01*
X228897Y172889D01*
X230531Y173558D01*
X232238Y174007D01*
X233989Y174230D01*
X235755Y174222D01*
X237504Y173984D01*
X238355Y173751D01*
X299574Y173751D01*
X300047Y173751D01*
X300047Y173751D01*
X300047Y173751D01*
X301700Y173779D01*
X304998Y174001D01*
X308275Y174443D01*
X311514Y175104D01*
X314701Y175981D01*
X317823Y177069D01*
X320865Y178364D01*
X323813Y179861D01*
X326654Y181551D01*
X329375Y183429D01*
X331964Y185484D01*
X334409Y187709D01*
X335575Y188881D01*
X344525Y198193D01*
X344525Y198193D01*
X344525Y198193D01*
X345731Y199488D01*
X348016Y202191D01*
X350124Y205035D01*
X352047Y208007D01*
X353776Y211096D01*
X355305Y214288D01*
X356627Y217572D01*
X357738Y220933D01*
X358631Y224359D01*
X359305Y227834D01*
X359755Y231345D01*
X359981Y234877D01*
X360009Y236647D01*
X360009Y437924D01*
X360009Y437924D01*
X360009Y437924D01*
X360009Y438982D01*
X360285Y441080D01*
X360833Y443124D01*
X361642Y445079D01*
X362700Y446912D01*
X363988Y448590D01*
X365485Y450086D01*
X367163Y451375D01*
X368996Y452433D01*
X370951Y453242D01*
X372995Y453790D01*
X375093Y454066D01*
X376151Y454066D01*
X538355Y454066D01*
X545144Y454066D01*
D02*
G37*
G36*
X35039Y456299D02*
X125730Y456299D01*
X125803Y456206D01*
X125696Y455533D01*
X125368Y455313D01*
X124846Y454532D01*
X124662Y453610D01*
Y450067D01*
X124846Y449145D01*
X125368Y448364D01*
X126149Y447842D01*
X127071Y447658D01*
X127993Y447842D01*
X128774Y448364D01*
X129296Y449145D01*
X129479Y450067D01*
Y453610D01*
X129296Y454532D01*
X128774Y455313D01*
X128446Y455533D01*
X128338Y456206D01*
X128411Y456299D01*
X159784Y456299D01*
X159858Y456205D01*
X159751Y455532D01*
X159423Y455313D01*
X158901Y454532D01*
X158718Y453610D01*
Y450067D01*
X158901Y449145D01*
X159423Y448364D01*
X160204Y447842D01*
X161126Y447658D01*
X162048Y447842D01*
X162829Y448364D01*
X163351Y449145D01*
X163534Y450067D01*
Y453610D01*
X163351Y454532D01*
X162829Y455313D01*
X162501Y455532D01*
X162394Y456205D01*
X162468Y456299D01*
X211035Y456298D01*
X211036Y456298D01*
X211036Y456298D01*
X212522Y456298D01*
X215481Y456006D01*
X218396Y455425D01*
X221241Y454560D01*
X223987Y453420D01*
X226607Y452015D01*
X229077Y450360D01*
X231372Y448470D01*
X233470Y446363D01*
X235351Y444061D01*
X236997Y441585D01*
X238391Y438959D01*
X239521Y436209D01*
X240375Y433361D01*
X240945Y430443D01*
X241225Y427483D01*
X241219Y425997D01*
X241045Y381736D01*
X241045Y381736D01*
X241037Y379725D01*
X240760Y375711D01*
X240221Y371725D01*
X239425Y367781D01*
X238373Y363898D01*
X237072Y360091D01*
X235525Y356378D01*
X233739Y352773D01*
X231723Y349291D01*
X229485Y345948D01*
X227034Y342758D01*
X224380Y339735D01*
X222958Y338312D01*
X186085Y301440D01*
X186085Y301440D01*
X184543Y299811D01*
X181622Y296407D01*
X178930Y292819D01*
X176479Y289062D01*
X174278Y285154D01*
X172338Y281110D01*
X170667Y276947D01*
X169271Y272684D01*
X168157Y268339D01*
X167330Y263931D01*
X166793Y259478D01*
X166548Y254999D01*
X166535Y252756D01*
Y242493D01*
X166074Y242302D01*
X145503Y262872D01*
X145610Y263056D01*
X145807Y263792D01*
Y264554D01*
X145610Y265290D01*
X145229Y265950D01*
X144690Y266489D01*
X144030Y266870D01*
X143294Y267067D01*
X142532D01*
X141797Y266870D01*
X141137Y266489D01*
X140598Y265950D01*
X140217Y265290D01*
X140020Y264554D01*
Y263792D01*
X140217Y263056D01*
X140598Y262397D01*
X141137Y261858D01*
X141797Y261477D01*
X142532Y261280D01*
X143294D01*
X144030Y261477D01*
X144215Y261583D01*
X166535Y239263D01*
Y193042D01*
X166074Y192851D01*
X111900Y247024D01*
X112008Y247285D01*
Y247990D01*
X111738Y248641D01*
X111240Y249140D01*
X110589Y249410D01*
X109884D01*
X109233Y249140D01*
X108734Y248641D01*
X108465Y247990D01*
Y247285D01*
X108734Y246634D01*
X109233Y246136D01*
X109884Y245866D01*
X110589D01*
X110850Y245974D01*
X166535Y190288D01*
X166535Y125894D01*
X166074Y125702D01*
X125321Y166455D01*
Y193701D01*
X125251Y194050D01*
X125054Y194345D01*
X97403Y221996D01*
X97441Y222089D01*
Y222793D01*
X97333Y223054D01*
X98950Y224672D01*
X99111Y224913D01*
X99168Y225197D01*
Y227918D01*
X99429Y228026D01*
X99927Y228524D01*
X100197Y229175D01*
Y229880D01*
X99927Y230531D01*
X99429Y231030D01*
X98778Y231299D01*
X98073D01*
X97422Y231030D01*
X96923Y230531D01*
X96653Y229880D01*
Y229175D01*
X96923Y228524D01*
X97422Y228026D01*
X97683Y227918D01*
Y225504D01*
X96283Y224104D01*
X96022Y224213D01*
X95317D01*
X94666Y223943D01*
X94167Y223445D01*
X93898Y222793D01*
Y222089D01*
X94167Y221437D01*
X94666Y220939D01*
X95317Y220669D01*
X96022D01*
X96114Y220708D01*
X123498Y193323D01*
Y166078D01*
X123568Y165729D01*
X123765Y165433D01*
X166535Y122663D01*
Y117428D01*
X166074Y117237D01*
X125940Y157371D01*
Y158268D01*
X125883Y158552D01*
X125722Y158793D01*
X117869Y166646D01*
Y193504D01*
X117812Y193788D01*
X117651Y194029D01*
X83026Y228654D01*
Y231067D01*
X83287Y231175D01*
X83785Y231674D01*
X84055Y232325D01*
Y233030D01*
X83785Y233681D01*
X83287Y234179D01*
X82636Y234449D01*
X81931D01*
X81280Y234179D01*
X80782Y233681D01*
X80512Y233030D01*
Y232325D01*
X80782Y231674D01*
X81280Y231175D01*
X81541Y231067D01*
Y228806D01*
X81041Y228599D01*
X71491Y238149D01*
Y271596D01*
X79559Y279664D01*
X79820Y279556D01*
X80525D01*
X81176Y279826D01*
X81674Y280325D01*
X81944Y280976D01*
Y281680D01*
X81674Y282332D01*
X81176Y282830D01*
X80525Y283100D01*
X79820D01*
X79169Y282830D01*
X78671Y282332D01*
X78401Y281680D01*
Y280976D01*
X78509Y280715D01*
X70890Y273095D01*
X70428Y273287D01*
Y275677D01*
X78654Y283903D01*
X82248D01*
X82356Y283642D01*
X82855Y283144D01*
X83506Y282874D01*
X84211D01*
X84862Y283144D01*
X85360Y283642D01*
X85630Y284293D01*
Y284998D01*
X85360Y285649D01*
X84862Y286148D01*
X84211Y286417D01*
X83506D01*
X82855Y286148D01*
X82356Y285649D01*
X82248Y285388D01*
X78347D01*
X78062Y285332D01*
X77821Y285171D01*
X69160Y276509D01*
X68999Y276268D01*
X68942Y275984D01*
Y237402D01*
X68999Y237117D01*
X69160Y236877D01*
X92564Y213472D01*
Y193348D01*
X92190Y193248D01*
X91530Y192867D01*
X90991Y192328D01*
X90611Y191668D01*
X90413Y190932D01*
Y190170D01*
X90611Y189434D01*
X90991Y188774D01*
X91530Y188236D01*
X92190Y187855D01*
X92926Y187657D01*
X93688D01*
X94424Y187855D01*
X95084Y188236D01*
X95623Y188774D01*
X96004Y189434D01*
X96201Y190170D01*
Y190932D01*
X96004Y191668D01*
X95623Y192328D01*
X95084Y192867D01*
X94424Y193248D01*
X94050Y193348D01*
Y212837D01*
X94512Y213028D01*
X103588Y203952D01*
Y193445D01*
X103556D01*
X102820Y193248D01*
X102160Y192867D01*
X101621Y192328D01*
X101241Y191668D01*
X101043Y190932D01*
Y190170D01*
X101241Y189434D01*
X101621Y188774D01*
X102160Y188236D01*
X102820Y187855D01*
X103556Y187657D01*
X104318D01*
X105054Y187855D01*
X105714Y188236D01*
X106253Y188774D01*
X106633Y189434D01*
X106831Y190170D01*
Y190932D01*
X106633Y191668D01*
X106253Y192328D01*
X105714Y192867D01*
X105073Y193236D01*
Y203799D01*
X105573Y204006D01*
X116383Y193196D01*
Y166339D01*
X116440Y166054D01*
X116601Y165814D01*
X124454Y157960D01*
Y157063D01*
X124511Y156779D01*
X124672Y156538D01*
X166535Y114674D01*
Y86189D01*
X166173Y85935D01*
X166035Y85893D01*
X165748Y85951D01*
X165399Y85881D01*
X165104Y85684D01*
X164906Y85388D01*
X164837Y85039D01*
X164906Y84691D01*
X165104Y84395D01*
X165497Y84001D01*
X165793Y83804D01*
X166142Y83735D01*
X166535D01*
Y55905D01*
X166535Y55905D01*
Y53786D01*
X166203Y49561D01*
X165540Y45375D01*
X164550Y41254D01*
X163241Y37223D01*
X161619Y33307D01*
X159695Y29530D01*
X157480Y25917D01*
X154989Y22488D01*
X152236Y19265D01*
X149239Y16268D01*
X146016Y13515D01*
X142587Y11024D01*
X138973Y8809D01*
X135197Y6885D01*
X131281Y5263D01*
X127250Y3954D01*
X123129Y2964D01*
X118943Y2301D01*
X114718Y1969D01*
X112598Y1969D01*
X55118D01*
X53030Y1969D01*
X48866Y2296D01*
X44741Y2950D01*
X40680Y3924D01*
X36708Y5215D01*
X32849Y6813D01*
X29128Y8709D01*
X25567Y10892D01*
X22188Y13347D01*
X19012Y16059D01*
X16059Y19012D01*
X13347Y22188D01*
X10892Y25567D01*
X8709Y29128D01*
X6813Y32849D01*
X5215Y36708D01*
X3924Y40680D01*
X2950Y44741D01*
X2296Y48866D01*
X1969Y53030D01*
Y55118D01*
Y230315D01*
Y234479D01*
X2211Y235696D01*
X2685Y236842D01*
X3375Y237874D01*
X4252Y238751D01*
X5284Y239441D01*
X6430Y239915D01*
X7647Y240158D01*
X9055D01*
X11393Y240164D01*
X11811Y240158D01*
X27953D01*
X28634Y240158D01*
X29134Y240158D01*
Y240158D01*
X29597Y240180D01*
X29622Y240185D01*
X30505Y240361D01*
X31361Y240715D01*
X32131Y241230D01*
X32786Y241884D01*
X33301Y242655D01*
X33655Y243510D01*
X33836Y244419D01*
X33858Y244882D01*
X33858Y248819D01*
Y252756D01*
Y255906D01*
Y305906D01*
X33858Y305906D01*
X33858Y305906D01*
X33834Y306486D01*
X33613Y307625D01*
X33173Y308698D01*
X32531Y309663D01*
X31711Y310484D01*
X30745Y311126D01*
X29672Y311566D01*
X28533Y311786D01*
X27953Y311811D01*
X7874Y311811D01*
X7873Y311811D01*
X7292Y311810D01*
X6150Y312036D01*
X5075Y312481D01*
X4107Y313127D01*
X3284Y313950D01*
X2638Y314917D01*
X2193Y315993D01*
X1968Y317134D01*
X1969Y317716D01*
X1969Y424409D01*
X1969D01*
X1969Y424409D01*
X1997Y426005D01*
X2368Y429175D01*
X3047Y432294D01*
X4029Y435331D01*
X5304Y438257D01*
X6859Y441044D01*
X8681Y443666D01*
X10750Y446096D01*
X13048Y448312D01*
X15552Y450291D01*
X18237Y452016D01*
X21079Y453469D01*
X24050Y454637D01*
X27121Y455508D01*
X30262Y456073D01*
X33444Y456328D01*
X35039Y456299D01*
D02*
G37*
G36*
X451573Y184252D02*
X551181Y184252D01*
X551181Y184252D01*
X551181Y184252D01*
X552394Y184252D01*
X554799Y183935D01*
X557142Y183308D01*
X559383Y182379D01*
X561483Y181167D01*
X563408Y179690D01*
X565123Y177975D01*
X566600Y176050D01*
X567812Y173950D01*
X568741Y171709D01*
X569368Y169366D01*
X569685Y166961D01*
Y165748D01*
X569685Y164561D01*
X569375Y162207D01*
X568761Y159914D01*
X567852Y157721D01*
X566665Y155665D01*
X565220Y153781D01*
X563541Y152103D01*
X561658Y150658D01*
X559602Y149471D01*
X557409Y148562D01*
X555116Y147948D01*
X552762Y147638D01*
X551575Y147638D01*
X428808D01*
X428808Y147638D01*
X427867Y147615D01*
X425994Y147430D01*
X424149Y147063D01*
X422349Y146517D01*
X420610Y145797D01*
X418951Y144910D01*
X417387Y143865D01*
X415932Y142671D01*
X415251Y142022D01*
X414342Y141113D01*
X414342D01*
X413901Y140673D01*
X412939Y139883D01*
X411904Y139191D01*
X410806Y138604D01*
X409655Y138128D01*
X408464Y137767D01*
X407242Y137524D01*
X406003Y137402D01*
X405381Y137402D01*
X404693Y137402D01*
X403343Y137670D01*
X402071Y138195D01*
X400926Y138959D01*
X399951Y139931D01*
X399184Y141074D01*
X398655Y142344D01*
X398383Y143693D01*
X398379Y145070D01*
X398644Y146420D01*
X399166Y147694D01*
X399926Y148841D01*
X400411Y149330D01*
X423397Y172511D01*
X423397Y172511D01*
X423397Y172511D01*
X424777Y173903D01*
X427798Y176401D01*
X431050Y178589D01*
X434502Y180446D01*
X438120Y181953D01*
X441869Y183097D01*
X445713Y183866D01*
X449614Y184252D01*
X451573Y184252D01*
D02*
G37*
G36*
X531102Y94882D02*
X532804Y94882D01*
X536192Y94548D01*
X539531Y93884D01*
X542788Y92896D01*
X545933Y91593D01*
X548935Y89989D01*
X551766Y88097D01*
X554397Y85938D01*
X556804Y83531D01*
X558964Y80900D01*
X560855Y78069D01*
X562459Y75067D01*
X563762Y71922D01*
X564750Y68664D01*
X565414Y65326D01*
X565748Y61938D01*
X565748Y60236D01*
X565748Y60236D01*
X565748Y60236D01*
X565748Y31890D01*
X565748Y30575D01*
X565490Y27957D01*
X564977Y25377D01*
X564214Y22860D01*
X563207Y20430D01*
X561967Y18110D01*
X560505Y15923D01*
X558837Y13889D01*
X556977Y12029D01*
X554944Y10361D01*
X552756Y8899D01*
X550436Y7659D01*
X548006Y6653D01*
X545489Y5889D01*
X542909Y5376D01*
X540292Y5118D01*
X538976Y5118D01*
X538976Y5118D01*
X538976Y5118D01*
X245276D01*
X243959Y5118D01*
X241350Y5462D01*
X238808Y6143D01*
X236376Y7150D01*
X234097Y8466D01*
X232008Y10068D01*
X230147Y11930D01*
X228545Y14018D01*
X227229Y16297D01*
X226222Y18729D01*
X225540Y21271D01*
X225197Y23881D01*
X225197Y25197D01*
X225197Y25197D01*
Y26539D01*
X225547Y29199D01*
X226242Y31792D01*
X227269Y34271D01*
X228610Y36595D01*
X230244Y38724D01*
X232142Y40622D01*
X234271Y42256D01*
X236595Y43597D01*
X239074Y44624D01*
X241667Y45319D01*
X244327Y45669D01*
X245669Y45669D01*
X245669Y45669D01*
X319627D01*
X322404Y45714D01*
X327947Y46072D01*
X333454Y46786D01*
X338905Y47853D01*
X344275Y49270D01*
X349543Y51029D01*
X354687Y53124D01*
X359685Y55546D01*
X364516Y58284D01*
X369162Y61329D01*
X373601Y64666D01*
X377816Y68282D01*
X379834Y70191D01*
X379834Y70191D01*
X381836Y72145D01*
X386082Y75788D01*
X390555Y79151D01*
X395235Y82218D01*
X400102Y84977D01*
X405138Y87417D01*
X410320Y89528D01*
X415627Y91300D01*
X421037Y92727D01*
X426528Y93802D01*
X432077Y94521D01*
X437661Y94882D01*
X440458Y94882D01*
X440458Y94882D01*
X531102Y94882D01*
D02*
G37*
%LPC*%
G36*
X155829Y438846D02*
X155202D01*
X154624Y438607D01*
X154181Y438164D01*
X153941Y437585D01*
Y436958D01*
X154181Y436380D01*
X154624Y435937D01*
X155202Y435697D01*
X155829D01*
X156408Y435937D01*
X156851Y436380D01*
X157091Y436958D01*
Y437585D01*
X156851Y438164D01*
X156408Y438607D01*
X155829Y438846D01*
D02*
G37*
G36*
X132994D02*
X132368D01*
X131789Y438607D01*
X131346Y438164D01*
X131106Y437585D01*
Y436958D01*
X131346Y436380D01*
X131789Y435937D01*
X132368Y435697D01*
X132994D01*
X133573Y435937D01*
X134016Y436380D01*
X134256Y436958D01*
Y437585D01*
X134016Y438164D01*
X133573Y438607D01*
X132994Y438846D01*
D02*
G37*
G36*
X161126Y440074D02*
X160204Y439890D01*
X159423Y439368D01*
X158901Y438587D01*
X158718Y437665D01*
Y432941D01*
X158901Y432019D01*
X159423Y431238D01*
X160204Y430716D01*
X161126Y430533D01*
X162048Y430716D01*
X162829Y431238D01*
X163351Y432019D01*
X163534Y432941D01*
Y437665D01*
X163351Y438587D01*
X162829Y439368D01*
X162048Y439890D01*
X161126Y440074D01*
D02*
G37*
G36*
X127071D02*
X126149Y439890D01*
X125368Y439368D01*
X124846Y438587D01*
X124662Y437665D01*
Y432941D01*
X124846Y432019D01*
X125368Y431238D01*
X126149Y430716D01*
X127071Y430533D01*
X127993Y430716D01*
X128774Y431238D01*
X129296Y432019D01*
X129479Y432941D01*
Y437665D01*
X129296Y438587D01*
X128774Y439368D01*
X127993Y439890D01*
X127071Y440074D01*
D02*
G37*
G36*
X153900Y424799D02*
X153195D01*
X152544Y424530D01*
X152463Y424448D01*
X133894D01*
X133813Y424530D01*
X133162Y424799D01*
X132457D01*
X131806Y424530D01*
X131583Y424307D01*
X130760D01*
X130216Y424199D01*
X129755Y423890D01*
X61594Y355729D01*
X61286Y355268D01*
X61177Y354724D01*
Y180213D01*
X61286Y179669D01*
X61594Y179208D01*
X90592Y150209D01*
X90561Y150155D01*
X90299Y149179D01*
Y148168D01*
X90561Y147192D01*
X91066Y146316D01*
X91781Y145602D01*
X92656Y145096D01*
X93632Y144835D01*
X94643D01*
X95619Y145096D01*
X96495Y145602D01*
X97209Y146316D01*
X97715Y147192D01*
X97976Y148168D01*
Y149179D01*
X97715Y150155D01*
X97209Y151030D01*
X96495Y151745D01*
X95619Y152250D01*
X94643Y152512D01*
X93632D01*
X92656Y152250D01*
X92602Y152219D01*
X64019Y180801D01*
Y354136D01*
X131348Y421465D01*
X131953D01*
X132457Y421256D01*
X133162D01*
X133813Y421526D01*
X133894Y421606D01*
X152463D01*
X152544Y421526D01*
X153195Y421256D01*
X153900D01*
X154551Y421526D01*
X155049Y422024D01*
X155319Y422675D01*
Y423380D01*
X155049Y424031D01*
X154551Y424530D01*
X153900Y424799D01*
D02*
G37*
G36*
X188964Y333209D02*
X188202D01*
X187466Y333012D01*
X186806Y332630D01*
X186267Y332092D01*
X185886Y331432D01*
X185831Y331226D01*
X71619D01*
X71581Y331318D01*
X71082Y331817D01*
X70431Y332087D01*
X69726D01*
X69075Y331817D01*
X68577Y331318D01*
X68307Y330667D01*
Y329963D01*
X68577Y329311D01*
X69075Y328813D01*
X69726Y328543D01*
X70431D01*
X71082Y328813D01*
X71581Y329311D01*
X71619Y329404D01*
X185831D01*
X185886Y329198D01*
X186267Y328538D01*
X186806Y327999D01*
X187466Y327619D01*
X188202Y327421D01*
X188964D01*
X189700Y327619D01*
X190359Y327999D01*
X190898Y328538D01*
X191279Y329198D01*
X191476Y329934D01*
Y330696D01*
X191279Y331432D01*
X190898Y332092D01*
X190359Y332630D01*
X189700Y333012D01*
X188964Y333209D01*
D02*
G37*
G36*
X109801Y321063D02*
X109096D01*
X108445Y320793D01*
X107947Y320295D01*
X107677Y319644D01*
Y318939D01*
X107947Y318288D01*
X107953Y318281D01*
X107743Y318071D01*
X107582Y317830D01*
X107525Y317546D01*
Y279563D01*
X107264Y279455D01*
X106766Y278956D01*
X106496Y278305D01*
Y277600D01*
X106766Y276949D01*
X107264Y276451D01*
X107915Y276181D01*
X108620D01*
X109271Y276451D01*
X109770Y276949D01*
X110039Y277600D01*
Y278305D01*
X109770Y278956D01*
X109271Y279455D01*
X109010Y279563D01*
Y317238D01*
X109292Y317520D01*
X109801D01*
X110452Y317789D01*
X110951Y318288D01*
X111221Y318939D01*
Y319644D01*
X110951Y320295D01*
X110452Y320793D01*
X109801Y321063D01*
D02*
G37*
G36*
X115313D02*
X114608D01*
X113957Y320793D01*
X113459Y320295D01*
X113189Y319644D01*
Y318939D01*
X113459Y318288D01*
X113957Y317789D01*
X114218Y317681D01*
Y279835D01*
X109141Y274758D01*
X105941D01*
X105833Y275019D01*
X105334Y275518D01*
X104683Y275787D01*
X103978D01*
X103327Y275518D01*
X102829Y275019D01*
X102559Y274368D01*
Y273663D01*
X102829Y273012D01*
X103327Y272514D01*
X103978Y272244D01*
X104683D01*
X105334Y272514D01*
X105833Y273012D01*
X105941Y273273D01*
X109449D01*
X109733Y273330D01*
X109974Y273491D01*
X115486Y279002D01*
X115647Y279243D01*
X115703Y279528D01*
Y317681D01*
X115964Y317789D01*
X116463Y318288D01*
X116732Y318939D01*
Y319644D01*
X116463Y320295D01*
X115964Y320793D01*
X115313Y321063D01*
D02*
G37*
G36*
X89723Y204528D02*
X89018D01*
X88367Y204258D01*
X87868Y203760D01*
X87830Y203667D01*
X78706D01*
X78667Y203760D01*
X78169Y204258D01*
X77518Y204527D01*
X76813D01*
X76162Y204258D01*
X75663Y203760D01*
X75394Y203108D01*
Y202403D01*
X75663Y201752D01*
X76162Y201254D01*
X76813Y200984D01*
X77518D01*
X78169Y201254D01*
X78667Y201752D01*
X78706Y201845D01*
X87830D01*
X87868Y201752D01*
X88367Y201254D01*
X89018Y200984D01*
X89723D01*
X90374Y201254D01*
X90872Y201752D01*
X91142Y202403D01*
Y203108D01*
X90872Y203760D01*
X90374Y204258D01*
X89723Y204528D01*
D02*
G37*
G36*
X53108Y332087D02*
X52403D01*
X51752Y331817D01*
X51254Y331318D01*
X50984Y330667D01*
Y329963D01*
X51254Y329311D01*
X51752Y328813D01*
X51845Y328775D01*
Y300753D01*
X51752Y300714D01*
X51254Y300216D01*
X50984Y299565D01*
Y298860D01*
X51254Y298209D01*
X51752Y297711D01*
X51845Y297672D01*
Y230280D01*
X51752Y230242D01*
X51254Y229744D01*
X50984Y229093D01*
Y228388D01*
X51254Y227737D01*
X51648Y227343D01*
Y204378D01*
X51359Y204258D01*
X50860Y203760D01*
X50591Y203108D01*
Y202403D01*
X50860Y201752D01*
X51359Y201254D01*
X52010Y200984D01*
X52715D01*
X53366Y201254D01*
X53864Y201752D01*
X54134Y202403D01*
Y203108D01*
X53864Y203760D01*
X53470Y204153D01*
Y227118D01*
X53759Y227238D01*
X54258Y227737D01*
X54528Y228388D01*
Y229093D01*
X54258Y229744D01*
X53759Y230242D01*
X53667Y230280D01*
Y297672D01*
X53759Y297711D01*
X54258Y298209D01*
X54528Y298860D01*
Y299565D01*
X54258Y300216D01*
X53759Y300714D01*
X53667Y300753D01*
Y328775D01*
X53759Y328813D01*
X54258Y329311D01*
X54528Y329963D01*
Y330667D01*
X54258Y331318D01*
X53759Y331817D01*
X53108Y332087D01*
D02*
G37*
G36*
X114643Y162512D02*
X113632D01*
X112656Y162250D01*
X111781Y161745D01*
X111066Y161030D01*
X110561Y160155D01*
X110299Y159179D01*
Y158168D01*
X110561Y157192D01*
X111066Y156316D01*
X111781Y155602D01*
X112656Y155096D01*
X113632Y154835D01*
X114643D01*
X115619Y155096D01*
X116495Y155602D01*
X117209Y156316D01*
X117715Y157192D01*
X117976Y158168D01*
Y159179D01*
X117715Y160155D01*
X117209Y161030D01*
X116495Y161745D01*
X115619Y162250D01*
X114643Y162512D01*
D02*
G37*
G36*
X104643D02*
X103632D01*
X102656Y162250D01*
X101781Y161745D01*
X101066Y161030D01*
X100561Y160155D01*
X100299Y159179D01*
Y158168D01*
X100561Y157192D01*
X101066Y156316D01*
X101781Y155602D01*
X102656Y155096D01*
X103632Y154835D01*
X104643D01*
X105619Y155096D01*
X106495Y155602D01*
X107209Y156316D01*
X107715Y157192D01*
X107976Y158168D01*
Y159179D01*
X107715Y160155D01*
X107209Y161030D01*
X106495Y161745D01*
X105619Y162250D01*
X104643Y162512D01*
D02*
G37*
G36*
X94643D02*
X93632D01*
X92656Y162250D01*
X91781Y161745D01*
X91066Y161030D01*
X90561Y160155D01*
X90299Y159179D01*
Y158168D01*
X90561Y157192D01*
X91066Y156316D01*
X91781Y155602D01*
X92656Y155096D01*
X93632Y154835D01*
X94643D01*
X95619Y155096D01*
X96495Y155602D01*
X97209Y156316D01*
X97715Y157192D01*
X97976Y158168D01*
Y159179D01*
X97715Y160155D01*
X97209Y161030D01*
X96495Y161745D01*
X95619Y162250D01*
X94643Y162512D01*
D02*
G37*
G36*
X114643Y152512D02*
X113632D01*
X112656Y152250D01*
X111781Y151745D01*
X111066Y151030D01*
X110561Y150155D01*
X110299Y149179D01*
Y148168D01*
X110561Y147192D01*
X111066Y146316D01*
X111781Y145602D01*
X112656Y145096D01*
X113632Y144835D01*
X114643D01*
X115619Y145096D01*
X116495Y145602D01*
X117209Y146316D01*
X117715Y147192D01*
X117976Y148168D01*
Y149179D01*
X117715Y150155D01*
X117209Y151030D01*
X116495Y151745D01*
X115619Y152250D01*
X114643Y152512D01*
D02*
G37*
%LPD*%
D12*
X77165Y202756D02*
X89370D01*
X70079Y330315D02*
X188583D01*
X52756Y299213D02*
Y330315D01*
Y228740D02*
Y299213D01*
X52559Y202953D02*
Y228543D01*
X165748Y85039D02*
X166142Y84646D01*
X201181D01*
X217409Y100874D01*
X238665D01*
X238189Y120079D02*
X238427Y119841D01*
Y101112D02*
X238665Y100874D01*
X238427Y101112D02*
Y119841D01*
X307376Y101163D02*
Y119789D01*
X307087Y120079D02*
X307376Y119789D01*
Y101163D02*
X307665Y100874D01*
X124409Y166078D02*
Y193701D01*
X95669Y222441D02*
X124409Y193701D01*
Y166078D02*
X184188Y106299D01*
X199606D01*
X179528Y114173D02*
X199606D01*
X203937Y114567D02*
Y116535D01*
X199606Y110236D02*
X203937Y114567D01*
X182283Y138189D02*
X203937Y116535D01*
X182283Y138189D02*
Y224803D01*
X142913Y264173D02*
X182283Y224803D01*
X199421Y102548D02*
X199606Y102362D01*
X179526Y102734D02*
X179712Y102548D01*
X199421D01*
D102*
X62598Y180213D02*
Y354724D01*
X130760Y422886D02*
X132668D01*
X132809Y423028D01*
X62598Y354724D02*
X130760Y422886D01*
X62598Y180213D02*
X94138Y148673D01*
X132809Y423028D02*
X153547D01*
D103*
X77165Y202756D02*
X77165Y202756D01*
X69685Y237402D02*
X93307Y213779D01*
X70748Y237842D02*
X104331Y204259D01*
X70748Y237842D02*
Y271904D01*
X69685Y237402D02*
Y275984D01*
X78347Y284646D01*
X70748Y271904D02*
X80172Y281328D01*
X93307Y190551D02*
Y213779D01*
X104331Y190945D02*
Y204259D01*
X52362Y202756D02*
X52559Y202953D01*
Y228543D02*
X52756Y228740D01*
X125197Y157063D02*
X179526Y102734D01*
X125197Y157063D02*
Y158268D01*
X117126Y166339D02*
Y193504D01*
Y166339D02*
X125197Y158268D01*
X82284Y228346D02*
X117126Y193504D01*
X82284Y228346D02*
Y232677D01*
X95669Y222441D02*
X98425Y225197D01*
X103937Y190551D02*
X104331Y190945D01*
X179526Y114173D02*
Y178348D01*
X110236Y247638D02*
X179526Y178348D01*
X98425Y225197D02*
Y229528D01*
X78347Y284646D02*
X83858D01*
X114961Y279528D02*
Y319291D01*
X109449Y274016D02*
X114961Y279528D01*
X104331Y274016D02*
X109449D01*
X108268Y317546D02*
X109449Y318727D01*
Y319291D01*
X108268Y277953D02*
Y317546D01*
D108*
X446815Y247189D02*
D03*
Y231441D02*
D03*
X307665Y85126D02*
D03*
Y100874D02*
D03*
X238665Y85126D02*
D03*
Y100874D02*
D03*
X522815Y231441D02*
D03*
Y247189D02*
D03*
D109*
X459807Y298370D02*
D03*
Y180260D02*
D03*
X320657Y33945D02*
D03*
Y152055D02*
D03*
X251658Y33945D02*
D03*
Y152055D02*
D03*
X535807Y180260D02*
D03*
Y298370D02*
D03*
D110*
X94138Y158673D02*
D03*
Y148673D02*
D03*
X114138Y158673D02*
D03*
X104138D02*
D03*
Y148673D02*
D03*
X114138D02*
D03*
D111*
X132681Y437272D02*
D03*
X155516D02*
D03*
D112*
X161126Y435303D02*
D03*
X127071D02*
D03*
D113*
Y451839D02*
D03*
X161126D02*
D03*
D114*
X263409Y362287D02*
D03*
X233488D02*
D03*
X292543Y252051D02*
D03*
X233488D02*
D03*
D115*
X404315Y142441D02*
D03*
Y122756D02*
D03*
X457315Y89252D02*
D03*
Y152441D02*
D03*
X530315Y89252D02*
D03*
Y152441D02*
D03*
D116*
X401094Y34035D02*
D03*
X379244Y427035D02*
D03*
X474838Y33858D02*
D03*
X452988Y427035D02*
D03*
X548583Y33858D02*
D03*
X526732Y427035D02*
D03*
D117*
X381094Y34035D02*
D03*
X399244Y427035D02*
D03*
X454839Y33858D02*
D03*
X472988Y427035D02*
D03*
X528583Y33858D02*
D03*
X546732Y427035D02*
D03*
D118*
X535039Y371654D02*
D03*
X528937D02*
D03*
X522835D02*
D03*
X526575Y376772D02*
D03*
X532677D02*
D03*
X538779D02*
D03*
X540551Y371654D02*
D03*
X546654D02*
D03*
X543898Y376772D02*
D03*
X535039Y360630D02*
D03*
X528937D02*
D03*
X522835D02*
D03*
X526575Y365748D02*
D03*
X532677D02*
D03*
X538779D02*
D03*
X540551Y360630D02*
D03*
X546654D02*
D03*
X543898Y365748D02*
D03*
X534252Y350394D02*
D03*
X528150D02*
D03*
X522047D02*
D03*
X525787Y355512D02*
D03*
X531890D02*
D03*
X537992D02*
D03*
X539764Y350394D02*
D03*
X545866D02*
D03*
X543110Y355512D02*
D03*
X462205Y372835D02*
D03*
X456102D02*
D03*
X450000D02*
D03*
X453740Y377953D02*
D03*
X459842D02*
D03*
X465945D02*
D03*
X467717Y372835D02*
D03*
X473819D02*
D03*
X471063Y377953D02*
D03*
X462205Y361811D02*
D03*
X456102D02*
D03*
X450000D02*
D03*
X453740Y366929D02*
D03*
X459842D02*
D03*
X465945D02*
D03*
X467717Y361811D02*
D03*
X473819D02*
D03*
X471063Y366929D02*
D03*
X461417Y351575D02*
D03*
X455315D02*
D03*
X449213D02*
D03*
X452953Y356693D02*
D03*
X459055D02*
D03*
X465158D02*
D03*
X466929Y351575D02*
D03*
X473032D02*
D03*
X470276Y356693D02*
D03*
X388583Y370866D02*
D03*
X382480D02*
D03*
X376378D02*
D03*
X380118Y375984D02*
D03*
X386221D02*
D03*
X392323D02*
D03*
X394094Y370866D02*
D03*
X400197D02*
D03*
X397441Y375984D02*
D03*
X388583Y359842D02*
D03*
X382480D02*
D03*
X376378D02*
D03*
X380118Y364961D02*
D03*
X386221D02*
D03*
X392323D02*
D03*
X394094Y359842D02*
D03*
X400197D02*
D03*
X397441Y364961D02*
D03*
X387795Y349606D02*
D03*
X381693D02*
D03*
X375590D02*
D03*
X379331Y354724D02*
D03*
X385433D02*
D03*
X391535D02*
D03*
X393307Y349606D02*
D03*
X399409D02*
D03*
X396654Y354724D02*
D03*
X427165Y435827D02*
D03*
X421063D02*
D03*
X414961D02*
D03*
X418701Y440945D02*
D03*
X424803D02*
D03*
X430905D02*
D03*
X432677Y435827D02*
D03*
X438779D02*
D03*
X436024Y440945D02*
D03*
X427165Y424803D02*
D03*
X421063D02*
D03*
X414961D02*
D03*
X418701Y429921D02*
D03*
X424803D02*
D03*
X430905D02*
D03*
X432677Y424803D02*
D03*
X438779D02*
D03*
X436024Y429921D02*
D03*
X426378Y414567D02*
D03*
X420276D02*
D03*
X414173D02*
D03*
X417913Y419685D02*
D03*
X424016D02*
D03*
X430118D02*
D03*
X431890Y414567D02*
D03*
X437992D02*
D03*
X435236Y419685D02*
D03*
X507677Y420472D02*
D03*
X510433Y415354D02*
D03*
X504331D02*
D03*
X502559Y420472D02*
D03*
X496457D02*
D03*
X490354D02*
D03*
X486614Y415354D02*
D03*
X492717D02*
D03*
X498819D02*
D03*
X508465Y430709D02*
D03*
X511221Y425591D02*
D03*
X505118D02*
D03*
X503346Y430709D02*
D03*
X497244D02*
D03*
X491142D02*
D03*
X487402Y425591D02*
D03*
X493504D02*
D03*
X499606D02*
D03*
X508465Y441732D02*
D03*
X511221Y436614D02*
D03*
X505118D02*
D03*
X503346Y441732D02*
D03*
X497244D02*
D03*
X491142D02*
D03*
X487402Y436614D02*
D03*
X493504D02*
D03*
X499606D02*
D03*
X263386Y11417D02*
D03*
X257283D02*
D03*
X251181D02*
D03*
X254921Y16535D02*
D03*
X261024D02*
D03*
X267126D02*
D03*
X268898Y11417D02*
D03*
X275000D02*
D03*
X272244Y16535D02*
D03*
X293701Y11417D02*
D03*
X287598D02*
D03*
X281496D02*
D03*
X285236Y16535D02*
D03*
X291339D02*
D03*
X297441D02*
D03*
X299213Y11417D02*
D03*
X305315D02*
D03*
X302559Y16535D02*
D03*
X323622Y11417D02*
D03*
X317520D02*
D03*
X311417D02*
D03*
X315158Y16535D02*
D03*
X321260D02*
D03*
X327362D02*
D03*
X329134Y11417D02*
D03*
X335236D02*
D03*
X332480Y16535D02*
D03*
X353543Y11417D02*
D03*
X347441D02*
D03*
X341339D02*
D03*
X345079Y16535D02*
D03*
X351181D02*
D03*
X357283D02*
D03*
X359055Y11417D02*
D03*
X365158D02*
D03*
X362402Y16535D02*
D03*
X504331Y44094D02*
D03*
X498228D02*
D03*
X492126D02*
D03*
X495866Y49213D02*
D03*
X501968D02*
D03*
X508071D02*
D03*
X509842Y44094D02*
D03*
X515945D02*
D03*
X513189Y49213D02*
D03*
X503150Y33071D02*
D03*
X497047D02*
D03*
X490945D02*
D03*
X494685Y38189D02*
D03*
X500787D02*
D03*
X506890D02*
D03*
X508661Y33071D02*
D03*
X514764D02*
D03*
X512008Y38189D02*
D03*
X502756Y22835D02*
D03*
X496654D02*
D03*
X490551D02*
D03*
X494291Y27953D02*
D03*
X500394D02*
D03*
X506496D02*
D03*
X508268Y22835D02*
D03*
X514370D02*
D03*
X511614Y27953D02*
D03*
X501575Y12205D02*
D03*
X495472D02*
D03*
X489370D02*
D03*
X493110Y17323D02*
D03*
X499213D02*
D03*
X505315D02*
D03*
X507087Y12205D02*
D03*
X513189D02*
D03*
X510433Y17323D02*
D03*
X428346Y44488D02*
D03*
X422244D02*
D03*
X416142D02*
D03*
X419882Y49606D02*
D03*
X425984D02*
D03*
X432087D02*
D03*
X433858Y44488D02*
D03*
X439961D02*
D03*
X437205Y49606D02*
D03*
X427559Y34252D02*
D03*
X421457D02*
D03*
X415354D02*
D03*
X419095Y39370D02*
D03*
X425197D02*
D03*
X431299D02*
D03*
X433071Y34252D02*
D03*
X439173D02*
D03*
X436417Y39370D02*
D03*
X427165Y24016D02*
D03*
X421063D02*
D03*
X414961D02*
D03*
X418701Y29134D02*
D03*
X424803D02*
D03*
X430905D02*
D03*
X432677Y24016D02*
D03*
X438779D02*
D03*
X436024Y29134D02*
D03*
Y17717D02*
D03*
X438779Y12598D02*
D03*
X432677D02*
D03*
X430905Y17717D02*
D03*
X424803D02*
D03*
X418701D02*
D03*
X414961Y12598D02*
D03*
X421063D02*
D03*
X427165D02*
D03*
X89370Y202756D02*
D03*
X70079Y330315D02*
D03*
X52756Y299213D02*
D03*
Y330315D02*
D03*
X52362Y202756D02*
D03*
X77165Y202756D02*
D03*
X52756Y228740D02*
D03*
X95669Y222441D02*
D03*
X179526Y114173D02*
D03*
X199606D02*
D03*
X73228Y293701D02*
D03*
X110236Y247638D02*
D03*
X179526Y102734D02*
D03*
X82284Y232677D02*
D03*
X98425Y229528D02*
D03*
X199606Y102362D02*
D03*
Y106299D02*
D03*
Y110236D02*
D03*
X80172Y281328D02*
D03*
X83858Y284646D02*
D03*
X131102Y409055D02*
D03*
X132809Y423028D02*
D03*
X126378Y422835D02*
D03*
X159187Y423028D02*
D03*
X153547D02*
D03*
X114961Y319291D02*
D03*
X109449D02*
D03*
X108268Y277953D02*
D03*
X104331Y274016D02*
D03*
D119*
X188583Y330315D02*
D03*
X165748Y85039D02*
D03*
X238189Y120079D02*
D03*
X307087D02*
D03*
X103937Y190551D02*
D03*
X142913Y264173D02*
D03*
X93307Y190551D02*
D03*
D120*
X95638Y260173D02*
D03*
X92158Y263653D02*
D03*
X99118Y256693D02*
D03*
X95638Y253214D02*
D03*
X92158Y256693D02*
D03*
X88678Y260173D02*
D03*
X95638Y267133D02*
D03*
X99118Y263653D02*
D03*
X102597Y260173D02*
D03*
M02*
