M48
;Layer_Color=9474304
;FILE_FORMAT=2:4
INCH,TZ
;TYPE=PLATED
T01F00S00C0.0079
T02F00S00C0.0118
T04F00S00C0.0280
T05F00S00C0.0300
T07F00S00C0.0400
T08F00S00C0.0472
T09F00S00C0.0492
T10F00S00C0.0500
T11F00S00C0.0512
;TYPE=NON_PLATED
T12F00S00C0.0236
%
T01
X9216Y25669
X9564Y25321
Y26017
X8868
X9216Y26365
X9564Y26713
X9912Y26365
X10260Y26017
X9912Y25669
T02
X25118Y1142
X25728
X26339
X26890
X27500
X28150
X28760
X29370
X29921
X29744Y1654
X29134
X28524
X27224
X26713
X26102
X25492
X19961Y10236
Y10630
Y11024
Y11417
X17953
Y10273
X30256Y1654
X30531Y1142
X31142
X31752
X32362
X32913
X33524
X34134
X34744
X35354
X35906
X36516
X36240Y1654
X35728
X35118
X34508
X33248
X32736
X32126
X31516
X41496Y1260
X42106
X42717
X43268
X43878
X43602Y1772
X43091
X42480
X41870
X42106Y2402
X42717
X43268
X43878
X43602Y2913
X43091
X42480
X41870
X42146Y3425
X42756
X43307
X43917
X43642Y3937
X43130
X42520
X41909
X41614Y4449
X42224
X42835
X43386
X43996
X43720Y4961
X43209
X42598
X41988
X41535Y3425
X41496Y2402
X49055Y2283
X49665
X50276
X50827
X51437
X51161Y2795
X50650
X50039
X49429
X49705Y3307
X50315
X50866
X51476
X51201Y3819
X50689
X50079
X49468
X49213Y4409
X49823
X50433
X50984
X51594
X51319Y4921
X50807
X50197
X49587
X49094Y3307
X49311Y1732
X49921
X50532
X51043
X51319Y1220
X50709
X50157
X49547
X48937
X8937Y20276
X7717Y20276
X5236Y20276
X5276Y22874
X8228Y23268
X9843Y22953
X9567Y22244
X11024Y24764
X10827Y27795
X10433Y27402
X8386Y28465
X8017Y28133
X7323Y29370
X5276Y29921
Y33031
X7008
X10945Y31929
X11496
X13110Y40906
X13281Y42303
X12638Y42283
X15355Y42303
X15919
X41496Y42480
X42106
X42717
X43268
X43878
X43602Y42992
X43091
X42480
X41870
X41791Y41968
X42402
X43012
X43524
X43799Y41457
X43189
X42638
X42028
X41417
X39744Y37598
X39232
X38622
X38012
X38248Y37087
X38858
X39409
X40020
X39744Y36496
X39232
X38622
X38012
X38248Y35984
X38858
X39409
X40020
X39665Y35472
X39154
X38543
X37933
X38169Y34961
X38780
X39331
X39941
X37559
X37638Y35984
Y37087
X45000Y37283
X45374Y37795
Y36693
X45000Y36181
X45295Y35669
X45532Y35157
X44921
X46142
X46693
X47303
X47028Y35669
X46516
X45906
X45610Y36181
X46220
X46772
X47382
X47106Y36693
X46594
X45984
X46220Y37283
X46772
X47382
X47106Y37795
X46594
X45984
X45610Y37283
X52283Y37165
X52894
X53504
X54055
X54665
X54390Y37677
X53878
X53268
X52657
Y36575
X53268
X53878
X54390
X54665Y36063
X54055
X53504
X52894
X52283
X52579Y35551
X53189
X53799
X54311
X54587Y35039
X53976
X53425
X52815
X52205
X51043Y41535
X50433
X49882
X49272
X48661
X49035Y42047
X49646
X50256
X50768
X50512Y42559
X49961
X49350
X48740
X49114Y43071
X49724
X50335
X50846
X51122Y42559
Y43661
X50512
X49961
X49350
X48740
X49114Y44173
X49724
X50335
X50846
X43602Y44094
X43091
X42480
X41870
X42106Y43583
X42717
X43268
X43878
X41496
T04
X16575Y8504
X23819Y12008
X30709
X10394Y19055
X9331
X14291Y26417
X18858Y33031
T05
X23349Y25205
X29254
X26341Y36229
X23349
T07
X9414Y14867
Y15867
X10414
X11414
Y14867
X10414
T08
X40431Y12276
Y14244
T09
X23867Y8513
Y10087
X30767
Y8513
X52281Y23144
Y24719
X44682
Y23144
T10
X45732Y8925
X53032
Y15244
X45732
T11
X38109Y3404
X40109
X45484Y3386
X47484
X52858
X54858
X45299Y42704
X39924
X37924
X47299
X52673
X54673
T12
X15552Y43727
X13268
M30
