G04*
G04 #@! TF.GenerationSoftware,Altium Limited,Altium Designer,23.9.2 (47)*
G04*
G04 Layer_Physical_Order=1*
G04 Layer_Color=255*
%FSLAX25Y25*%
%MOIN*%
G70*
G04*
G04 #@! TF.SameCoordinates,32FA3CAB-4A21-4C27-9538-83D2161AB544*
G04*
G04*
G04 #@! TF.FilePolarity,Positive*
G04*
G01*
G75*
%ADD12C,0.01000*%
G04:AMPARAMS|DCode=19|XSize=25.59mil|YSize=41.34mil|CornerRadius=0mil|HoleSize=0mil|Usage=FLASHONLY|Rotation=225.000|XOffset=0mil|YOffset=0mil|HoleType=Round|Shape=Rectangle|*
%AMROTATEDRECTD19*
4,1,4,-0.00557,0.02366,0.02366,-0.00557,0.00557,-0.02366,-0.02366,0.00557,-0.00557,0.02366,0.0*
%
%ADD19ROTATEDRECTD19*%

%ADD20R,0.02559X0.04134*%
G04:AMPARAMS|DCode=21|XSize=25.59mil|YSize=41.34mil|CornerRadius=0mil|HoleSize=0mil|Usage=FLASHONLY|Rotation=135.000|XOffset=0mil|YOffset=0mil|HoleType=Round|Shape=Rectangle|*
%AMROTATEDRECTD21*
4,1,4,0.02366,0.00557,-0.00557,-0.02366,-0.02366,-0.00557,0.00557,0.02366,0.02366,0.00557,0.0*
%
%ADD21ROTATEDRECTD21*%

%ADD22R,0.01181X0.05906*%
%ADD23R,0.12520X0.07874*%
G04:AMPARAMS|DCode=24|XSize=135.83mil|YSize=135.83mil|CornerRadius=6.79mil|HoleSize=0mil|Usage=FLASHONLY|Rotation=225.000|XOffset=0mil|YOffset=0mil|HoleType=Round|Shape=RoundedRectangle|*
%AMROUNDEDRECTD24*
21,1,0.13583,0.12224,0,0,225.0*
21,1,0.12224,0.13583,0,0,225.0*
1,1,0.01358,-0.08644,0.00000*
1,1,0.01358,0.00000,0.08644*
1,1,0.01358,0.08644,0.00000*
1,1,0.01358,0.00000,-0.08644*
%
%ADD24ROUNDEDRECTD24*%
%ADD25R,0.02362X0.02756*%
G04:AMPARAMS|DCode=26|XSize=39.37mil|YSize=66.93mil|CornerRadius=0mil|HoleSize=0mil|Usage=FLASHONLY|Rotation=315.000|XOffset=0mil|YOffset=0mil|HoleType=Round|Shape=Rectangle|*
%AMROTATEDRECTD26*
4,1,4,-0.03758,-0.00974,0.00974,0.03758,0.03758,0.00974,-0.00974,-0.03758,-0.03758,-0.00974,0.0*
%
%ADD26ROTATEDRECTD26*%

G04:AMPARAMS|DCode=27|XSize=55.12mil|YSize=66.93mil|CornerRadius=0mil|HoleSize=0mil|Usage=FLASHONLY|Rotation=45.000|XOffset=0mil|YOffset=0mil|HoleType=Round|Shape=Rectangle|*
%AMROTATEDRECTD27*
4,1,4,0.00418,-0.04315,-0.04315,0.00418,-0.00418,0.04315,0.04315,-0.00418,0.00418,-0.04315,0.0*
%
%ADD27ROTATEDRECTD27*%

G04:AMPARAMS|DCode=28|XSize=9.84mil|YSize=27.56mil|CornerRadius=0.49mil|HoleSize=0mil|Usage=FLASHONLY|Rotation=45.000|XOffset=0mil|YOffset=0mil|HoleType=Round|Shape=RoundedRectangle|*
%AMROUNDEDRECTD28*
21,1,0.00984,0.02657,0,0,45.0*
21,1,0.00886,0.02756,0,0,45.0*
1,1,0.00098,0.01253,-0.00626*
1,1,0.00098,0.00626,-0.01253*
1,1,0.00098,-0.01253,0.00626*
1,1,0.00098,-0.00626,0.01253*
%
%ADD28ROUNDEDRECTD28*%
G04:AMPARAMS|DCode=29|XSize=9.84mil|YSize=27.56mil|CornerRadius=0.49mil|HoleSize=0mil|Usage=FLASHONLY|Rotation=315.000|XOffset=0mil|YOffset=0mil|HoleType=Round|Shape=RoundedRectangle|*
%AMROUNDEDRECTD29*
21,1,0.00984,0.02657,0,0,315.0*
21,1,0.00886,0.02756,0,0,315.0*
1,1,0.00098,-0.00626,-0.01253*
1,1,0.00098,-0.01253,-0.00626*
1,1,0.00098,0.00626,0.01253*
1,1,0.00098,0.01253,0.00626*
%
%ADD29ROUNDEDRECTD29*%
%ADD30R,0.02756X0.02362*%
%ADD31R,0.01181X0.03543*%
%ADD33R,0.03150X0.03937*%
%ADD34R,0.06693X0.05512*%
G04:AMPARAMS|DCode=35|XSize=55.12mil|YSize=66.93mil|CornerRadius=0mil|HoleSize=0mil|Usage=FLASHONLY|Rotation=315.000|XOffset=0mil|YOffset=0mil|HoleType=Round|Shape=Rectangle|*
%AMROTATEDRECTD35*
4,1,4,-0.04315,-0.00418,0.00418,0.04315,0.04315,0.00418,-0.00418,-0.04315,-0.04315,-0.00418,0.0*
%
%ADD35ROTATEDRECTD35*%

%ADD36R,0.05512X0.06693*%
G04:AMPARAMS|DCode=37|XSize=31.5mil|YSize=39.37mil|CornerRadius=0mil|HoleSize=0mil|Usage=FLASHONLY|Rotation=45.000|XOffset=0mil|YOffset=0mil|HoleType=Round|Shape=Rectangle|*
%AMROTATEDRECTD37*
4,1,4,0.00278,-0.02506,-0.02506,0.00278,-0.00278,0.02506,0.02506,-0.00278,0.00278,-0.02506,0.0*
%
%ADD37ROTATEDRECTD37*%

%ADD38R,0.03937X0.03150*%
%ADD39R,0.06693X0.03937*%
%ADD40R,0.04134X0.02559*%
%ADD41R,0.02362X0.05906*%
G04:AMPARAMS|DCode=42|XSize=23.62mil|YSize=27.56mil|CornerRadius=0mil|HoleSize=0mil|Usage=FLASHONLY|Rotation=45.000|XOffset=0mil|YOffset=0mil|HoleType=Round|Shape=Rectangle|*
%AMROTATEDRECTD42*
4,1,4,0.00139,-0.01810,-0.01810,0.00139,-0.00139,0.01810,0.01810,-0.00139,0.00139,-0.01810,0.0*
%
%ADD42ROTATEDRECTD42*%

G04:AMPARAMS|DCode=43|XSize=35.43mil|YSize=31.5mil|CornerRadius=1.58mil|HoleSize=0mil|Usage=FLASHONLY|Rotation=225.000|XOffset=0mil|YOffset=0mil|HoleType=Round|Shape=RoundedRectangle|*
%AMROUNDEDRECTD43*
21,1,0.03543,0.02835,0,0,225.0*
21,1,0.03228,0.03150,0,0,225.0*
1,1,0.00315,-0.02144,-0.00139*
1,1,0.00315,0.00139,0.02144*
1,1,0.00315,0.02144,0.00139*
1,1,0.00315,-0.00139,-0.02144*
%
%ADD43ROUNDEDRECTD43*%
%ADD44R,0.02362X0.04724*%
%ADD45R,0.04134X0.02362*%
G04:AMPARAMS|DCode=46|XSize=39.37mil|YSize=66.93mil|CornerRadius=0mil|HoleSize=0mil|Usage=FLASHONLY|Rotation=225.000|XOffset=0mil|YOffset=0mil|HoleType=Round|Shape=Rectangle|*
%AMROTATEDRECTD46*
4,1,4,-0.00974,0.03758,0.03758,-0.00974,0.00974,-0.03758,-0.03758,0.00974,-0.00974,0.03758,0.0*
%
%ADD46ROTATEDRECTD46*%

G04:AMPARAMS|DCode=47|XSize=41.34mil|YSize=25.59mil|CornerRadius=0mil|HoleSize=0mil|Usage=FLASHONLY|Rotation=135.000|XOffset=0mil|YOffset=0mil|HoleType=Round|Shape=Rectangle|*
%AMROTATEDRECTD47*
4,1,4,0.02366,-0.00557,0.00557,-0.02366,-0.02366,0.00557,-0.00557,0.02366,0.02366,-0.00557,0.0*
%
%ADD47ROTATEDRECTD47*%

%ADD48R,0.03937X0.06693*%
%ADD49R,0.06299X0.05906*%
%ADD93R,0.06496X0.00984*%
%ADD94R,0.19291X0.03543*%
%ADD95R,0.01968X0.19685*%
%ADD96R,0.19291X0.01968*%
%ADD97R,0.10394X0.01968*%
%ADD98R,0.01968X0.07874*%
%ADD99R,0.01968X0.10630*%
%ADD100R,0.15512X0.01968*%
%ADD101C,0.07874*%
%ADD102C,0.02000*%
%ADD103C,0.00669*%
%ADD104C,0.01500*%
%ADD105C,0.03000*%
%ADD106C,0.05000*%
%ADD107C,0.04500*%
%ADD108C,0.08858*%
%ADD109R,0.29528X0.05906*%
%ADD110C,0.06890*%
%ADD111C,0.02362*%
%ADD112O,0.03937X0.08661*%
%ADD113O,0.03937X0.07480*%
%ADD114C,0.06000*%
%ADD115C,0.08000*%
%ADD116C,0.07087*%
%ADD117R,0.07087X0.07087*%
%ADD118C,0.02756*%
%ADD119C,0.05000*%
%ADD120C,0.02559*%
G36*
X545371Y453937D02*
Y453937D01*
X546705Y453937D01*
X549348Y453588D01*
X551924Y452896D01*
X554386Y451872D01*
X556693Y450535D01*
X558805Y448908D01*
X560686Y447018D01*
X562304Y444898D01*
X563630Y442585D01*
X564642Y440118D01*
X565322Y437539D01*
X565659Y434894D01*
X565652Y433561D01*
X565059Y307181D01*
X565059Y307181D01*
X565053Y305779D01*
X564675Y303001D01*
X563939Y300295D01*
X562857Y297708D01*
X561447Y295284D01*
X559734Y293064D01*
X557747Y291086D01*
X555519Y289384D01*
X553089Y287985D01*
X550497Y286915D01*
X547788Y286192D01*
X545008Y285827D01*
X448003D01*
X448003Y285827D01*
X446295Y285799D01*
X442886Y285575D01*
X439499Y285129D01*
X436148Y284463D01*
X432848Y283579D01*
X429613Y282481D01*
X426457Y281173D01*
X423392Y279662D01*
X420434Y277954D01*
X417593Y276056D01*
X414883Y273976D01*
X412314Y271723D01*
X411086Y270535D01*
X406813Y266262D01*
X405519Y264925D01*
X403065Y262127D01*
X400800Y259175D01*
X398733Y256081D01*
X396872Y252858D01*
X395226Y249521D01*
X393802Y246083D01*
X392606Y242559D01*
X391643Y238965D01*
X390917Y235315D01*
X390431Y231626D01*
X390188Y227912D01*
X390158Y226052D01*
Y220471D01*
X390158Y220471D01*
X390158Y218421D01*
X389885Y214330D01*
X389342Y210266D01*
X388531Y206246D01*
X387454Y202290D01*
X386117Y198414D01*
X384526Y194635D01*
X382687Y190970D01*
X380610Y187435D01*
X378302Y184046D01*
X375774Y180817D01*
X373038Y177764D01*
X371572Y176331D01*
X348117Y153418D01*
X347031Y152357D01*
X344665Y150455D01*
X342126Y148791D01*
X339438Y147379D01*
X336626Y146233D01*
X333717Y145365D01*
X330738Y144781D01*
X327716Y144488D01*
X230709D01*
X229855Y144488D01*
X228182Y144821D01*
X226606Y145474D01*
X225187Y146422D01*
X223981Y147628D01*
X223033Y149047D01*
X222380Y150623D01*
X222047Y152296D01*
X222047Y153150D01*
Y164173D01*
X222047Y164173D01*
X222047Y164173D01*
X222280Y165025D01*
X222962Y166653D01*
X223852Y168177D01*
X224933Y169573D01*
X226186Y170816D01*
X227592Y171884D01*
X229124Y172760D01*
X230758Y173428D01*
X232466Y173878D01*
X234217Y174100D01*
X235982Y174092D01*
X237731Y173854D01*
X238583Y173622D01*
X299801Y173622D01*
X300274Y173622D01*
X300274Y173622D01*
X300274Y173622D01*
X301927Y173650D01*
X305226Y173871D01*
X308502Y174314D01*
X311741Y174975D01*
X314929Y175851D01*
X318050Y176940D01*
X321092Y178235D01*
X324040Y179731D01*
X326881Y181422D01*
X329602Y183299D01*
X332191Y185355D01*
X334637Y187580D01*
X335802Y188752D01*
X344752Y198063D01*
X344752Y198063D01*
X344752Y198063D01*
X345958Y199359D01*
X348243Y202062D01*
X350352Y204906D01*
X352274Y207878D01*
X354004Y210966D01*
X355533Y214159D01*
X356855Y217443D01*
X357965Y220804D01*
X358858Y224229D01*
X359532Y227705D01*
X359982Y231216D01*
X360208Y234748D01*
X360236Y236518D01*
X360236Y437795D01*
X360236Y437795D01*
X360236Y437795D01*
X360236Y438853D01*
X360512Y440951D01*
X361060Y442995D01*
X361870Y444950D01*
X362928Y446782D01*
X364216Y448461D01*
X365712Y449957D01*
X367391Y451245D01*
X369223Y452303D01*
X371178Y453113D01*
X373222Y453661D01*
X375320Y453937D01*
X376378Y453937D01*
X538583Y453937D01*
X545371Y453937D01*
D02*
G37*
G36*
X151644Y441277D02*
X148495Y438128D01*
X148334Y437887D01*
X148277Y437602D01*
Y435697D01*
X146067D01*
X145811Y436091D01*
X145769Y436304D01*
X145608Y436545D01*
X144226Y437927D01*
X143985Y438088D01*
X143701Y438144D01*
X142520D01*
X142236Y438088D01*
X141995Y437927D01*
X140621Y436553D01*
X140460Y436312D01*
X140403Y436028D01*
Y435697D01*
X137951D01*
Y438082D01*
X141646Y441777D01*
X151437D01*
X151644Y441277D01*
D02*
G37*
G36*
X35039Y456299D02*
X125730Y456299D01*
X125803Y456206D01*
X125696Y455533D01*
X125368Y455313D01*
X124846Y454532D01*
X124662Y453610D01*
Y450067D01*
X124846Y449145D01*
X125368Y448364D01*
X126149Y447842D01*
X127071Y447658D01*
X127993Y447842D01*
X128774Y448364D01*
X129296Y449145D01*
X129479Y450067D01*
Y453610D01*
X129296Y454532D01*
X128774Y455313D01*
X128446Y455533D01*
X128338Y456206D01*
X128412Y456299D01*
X159784Y456299D01*
X159858Y456205D01*
X159751Y455532D01*
X159423Y455313D01*
X158901Y454532D01*
X158718Y453610D01*
Y450067D01*
X158901Y449145D01*
X159423Y448364D01*
X160204Y447842D01*
X161126Y447658D01*
X162048Y447842D01*
X162829Y448364D01*
X163351Y449145D01*
X163534Y450067D01*
Y453610D01*
X163351Y454532D01*
X162829Y455313D01*
X162501Y455532D01*
X162394Y456205D01*
X162468Y456298D01*
X211035Y456298D01*
X211035Y456298D01*
X211035Y456298D01*
X212522Y456298D01*
X215481Y456006D01*
X218396Y455425D01*
X221241Y454560D01*
X223987Y453420D01*
X226607Y452015D01*
X229077Y450360D01*
X231372Y448470D01*
X233470Y446363D01*
X235351Y444061D01*
X236997Y441585D01*
X238391Y438959D01*
X239521Y436209D01*
X240375Y433361D01*
X240945Y430443D01*
X241225Y427483D01*
X241219Y425997D01*
X241144Y406933D01*
X215943D01*
X201989Y420887D01*
X201528Y421195D01*
X200984Y421303D01*
X160294D01*
X160143Y421803D01*
X160192Y421836D01*
X160500Y422297D01*
X160608Y422841D01*
Y423045D01*
X160500Y423589D01*
X160192Y424050D01*
X158118Y426124D01*
Y432350D01*
X158010Y432894D01*
X157702Y433355D01*
X157241Y433663D01*
X156697Y433771D01*
X156153Y433663D01*
X155692Y433355D01*
X155622Y433250D01*
X155122Y433402D01*
Y435230D01*
X155202Y435697D01*
X155622Y435697D01*
X155829D01*
X156408Y435937D01*
X156851Y436380D01*
X157091Y436958D01*
Y437585D01*
X156851Y438164D01*
X156408Y438607D01*
X155829Y438846D01*
X155202D01*
X154624Y438607D01*
X154181Y438164D01*
X153941Y437585D01*
Y436958D01*
X154181Y436380D01*
X154364Y436197D01*
X154156Y435697D01*
X151972Y435697D01*
X151472Y435697D01*
X149762D01*
Y437295D01*
X152670Y440202D01*
X159771D01*
X159923Y439702D01*
X159423Y439368D01*
X158901Y438587D01*
X158718Y437665D01*
Y432941D01*
X158901Y432019D01*
X159423Y431238D01*
X160204Y430716D01*
X161126Y430533D01*
X162048Y430716D01*
X162829Y431238D01*
X163351Y432019D01*
X163534Y432941D01*
Y437665D01*
X163351Y438587D01*
X162829Y439368D01*
X162329Y439702D01*
X162481Y440202D01*
X169771D01*
X170669Y439304D01*
Y435630D01*
X178150D01*
Y440354D01*
X171720D01*
X170604Y441470D01*
X170363Y441631D01*
X170079Y441687D01*
X169035D01*
X168828Y442188D01*
X171720Y445079D01*
X178150D01*
Y449803D01*
X170669D01*
Y446129D01*
X167803Y443262D01*
X141339D01*
X141054Y443206D01*
X140814Y443045D01*
X136684Y438915D01*
X136523Y438674D01*
X136466Y438390D01*
Y436097D01*
X136224Y435697D01*
X135724Y435697D01*
X134040D01*
X133833Y436197D01*
X134016Y436380D01*
X134256Y436958D01*
Y437585D01*
X134016Y438164D01*
X133573Y438607D01*
X132994Y438846D01*
X132368D01*
X131789Y438607D01*
X131346Y438164D01*
X131106Y437585D01*
Y436958D01*
X131346Y436380D01*
X131789Y435937D01*
X132368Y435697D01*
X132575D01*
X132994Y435697D01*
X133075Y435230D01*
Y433402D01*
X132575Y433250D01*
X132505Y433355D01*
X132044Y433663D01*
X131500Y433771D01*
X130956Y433663D01*
X130495Y433355D01*
X130187Y432894D01*
X130079Y432350D01*
Y431167D01*
X125518Y426606D01*
X125210Y426145D01*
X125102Y425601D01*
Y423433D01*
X125065Y423378D01*
X124957Y422835D01*
X125065Y422291D01*
X125373Y421830D01*
X125834Y421522D01*
X126378Y421414D01*
X126922Y421522D01*
X127383Y421830D01*
X127527Y421975D01*
X127835Y422436D01*
X127944Y422979D01*
Y425013D01*
X132505Y429574D01*
X132575Y429679D01*
X133075Y429527D01*
Y429004D01*
X133229D01*
Y425661D01*
X132303Y424735D01*
X131806Y424530D01*
X131307Y424031D01*
X131038Y423380D01*
Y422675D01*
X131307Y422024D01*
X131806Y421526D01*
X132457Y421256D01*
X133162D01*
X133813Y421526D01*
X134311Y422024D01*
X134581Y422675D01*
Y422994D01*
X135654Y424068D01*
X135962Y424529D01*
X136071Y425072D01*
Y428568D01*
X136224Y429004D01*
X136724Y429004D01*
X140403D01*
Y424210D01*
X140460Y423926D01*
X140621Y423685D01*
X141383Y422922D01*
Y420386D01*
X138983Y417986D01*
X138822Y417745D01*
X138765Y417461D01*
Y416339D01*
X137598D01*
Y410827D01*
X140748D01*
Y416339D01*
X140251D01*
Y417153D01*
X142651Y419554D01*
X142651Y419554D01*
X142699Y419569D01*
X143229Y419521D01*
X143270Y419459D01*
X145891Y416839D01*
X145862Y416339D01*
X145079D01*
Y410827D01*
X148228D01*
Y416339D01*
X147396D01*
Y417126D01*
X147340Y417410D01*
X147179Y417651D01*
X144538Y420292D01*
Y423921D01*
X144481Y424205D01*
X144320Y424446D01*
X143857Y424910D01*
Y426654D01*
X144211Y427094D01*
X144765D01*
X145050Y427150D01*
X145139Y427210D01*
X146063D01*
X146347Y427267D01*
X146588Y427428D01*
X147320Y428160D01*
X147481Y428401D01*
X147538Y428685D01*
Y429004D01*
X151472D01*
X151972Y429004D01*
X152126Y428568D01*
Y424112D01*
X152045Y424031D01*
X151776Y423380D01*
Y422675D01*
X152045Y422024D01*
X152544Y421526D01*
X153195Y421256D01*
X153309D01*
X155272Y419293D01*
Y409252D01*
X154525D01*
X154437Y409270D01*
X154191D01*
X153580Y409880D01*
X153202Y410133D01*
X152756Y410221D01*
X144931D01*
X144483Y410682D01*
X144488Y410827D01*
X144488D01*
Y416339D01*
X141339D01*
Y410827D01*
X141747D01*
Y410236D01*
X141753Y410210D01*
X141550Y410033D01*
X141298Y409932D01*
X140997Y410133D01*
X140551Y410221D01*
X131102D01*
X130656Y410133D01*
X130278Y409880D01*
X130025Y409501D01*
X129936Y409055D01*
X130025Y408609D01*
X130278Y408231D01*
X130656Y407978D01*
X131102Y407889D01*
X139730D01*
X139801Y407784D01*
X139533Y407283D01*
X137598D01*
Y401772D01*
X138442D01*
X138487Y401546D01*
X138648Y401306D01*
X141383Y398570D01*
Y373534D01*
X88446Y320598D01*
X88285Y320357D01*
X88229Y320072D01*
Y281654D01*
X87729Y281605D01*
X87694Y281780D01*
X87533Y282021D01*
X85522Y284032D01*
X85630Y284293D01*
Y284998D01*
X85360Y285649D01*
X84862Y286148D01*
X84211Y286417D01*
X83506D01*
X82855Y286148D01*
X82356Y285649D01*
X82087Y284998D01*
Y284293D01*
X82356Y283642D01*
X82855Y283144D01*
X83506Y282874D01*
X84211D01*
X84472Y282982D01*
X86265Y281189D01*
Y276594D01*
X85765Y276545D01*
X85725Y276745D01*
X85565Y276986D01*
X81836Y280715D01*
X81944Y280976D01*
Y281680D01*
X81674Y282332D01*
X81176Y282830D01*
X80525Y283100D01*
X79820D01*
X79169Y282830D01*
X78671Y282332D01*
X78401Y281680D01*
Y280976D01*
X78671Y280325D01*
X79169Y279826D01*
X79820Y279556D01*
X80525D01*
X80786Y279664D01*
X84297Y276154D01*
Y272164D01*
X84353Y271879D01*
X84467Y271710D01*
X84078Y271391D01*
X74365Y281105D01*
Y285125D01*
X84777Y295538D01*
X84938Y295779D01*
X84995Y296063D01*
Y304724D01*
X84938Y305009D01*
X84777Y305250D01*
X80446Y309580D01*
X80205Y309741D01*
X79921Y309798D01*
X72416D01*
X72132Y309741D01*
X71891Y309580D01*
X68646Y306335D01*
X68169Y306812D01*
X67747Y306987D01*
X67325Y306812D01*
X66709Y306196D01*
X64904Y308001D01*
X65309Y308406D01*
X62804Y310912D01*
X60577Y308685D01*
X63082Y306179D01*
X63854Y306951D01*
X65659Y305146D01*
X65043Y304530D01*
X64868Y304108D01*
X65043Y303686D01*
X67047Y301681D01*
X67469Y301507D01*
X67891Y301681D01*
X70173Y303964D01*
X70348Y304386D01*
X70173Y304808D01*
X69696Y305285D01*
X72724Y308313D01*
X79614D01*
X83509Y304417D01*
Y296371D01*
X73097Y285958D01*
X72936Y285717D01*
X72879Y285433D01*
Y280797D01*
X72936Y280513D01*
X73049Y280343D01*
X72661Y280024D01*
X68388Y284298D01*
Y285567D01*
X69872Y287052D01*
X67366Y289557D01*
X65139Y287330D01*
X66902Y285567D01*
Y283990D01*
X66959Y283706D01*
X67120Y283465D01*
X85016Y265569D01*
X84795Y265085D01*
X84793Y265083D01*
X84511Y264966D01*
X83885Y264340D01*
X83768Y264057D01*
X83283Y263835D01*
X70898Y276219D01*
X71686Y277006D01*
X68345Y280347D01*
X67558Y279560D01*
X65387Y281731D01*
X65780Y282124D01*
X62440Y285465D01*
X62046Y285072D01*
X58684Y288434D01*
X59235Y288985D01*
X54688Y293532D01*
Y297458D01*
X54632Y297743D01*
X54471Y297984D01*
X54251Y298203D01*
X54258Y298209D01*
X54528Y298860D01*
Y299565D01*
X54258Y300216D01*
X53759Y300714D01*
X53108Y300984D01*
X52403D01*
X51752Y300714D01*
X51254Y300216D01*
X50984Y299565D01*
Y298860D01*
X51254Y298209D01*
X51752Y297711D01*
X52403Y297441D01*
X52913D01*
X53203Y297151D01*
Y293532D01*
X49491Y289820D01*
X54781Y284531D01*
X57634Y287384D01*
X60996Y284021D01*
X59656Y282681D01*
X62996Y279341D01*
X64336Y280681D01*
X66508Y278510D01*
X65561Y277563D01*
X68902Y274222D01*
X69848Y275169D01*
X82369Y262648D01*
X82353Y262609D01*
X82493Y262270D01*
X84297Y260466D01*
X84340Y260173D01*
X84297Y259881D01*
X83868Y259452D01*
X83740Y259580D01*
X83499Y259741D01*
X83215Y259798D01*
X69882D01*
Y260630D01*
X66339D01*
Y259798D01*
X63386D01*
Y260827D01*
X60236D01*
Y257283D01*
X63386D01*
Y258313D01*
X66339D01*
Y257480D01*
X69882D01*
Y258313D01*
X82076D01*
X82384Y257812D01*
X82353Y257737D01*
X82493Y257398D01*
X83119Y256772D01*
X83401Y256655D01*
X83403Y256654D01*
X83624Y256170D01*
X82141Y254686D01*
X79548Y252093D01*
X77756D01*
Y254500D01*
X70276D01*
Y253667D01*
X62992D01*
Y254528D01*
X59842D01*
Y250984D01*
X62992D01*
Y251845D01*
X70276D01*
Y248201D01*
X77756D01*
Y250608D01*
X79855D01*
X80139Y250664D01*
X80380Y250825D01*
X82573Y253018D01*
X82759D01*
X82999Y252857D01*
X83284Y252801D01*
X84832D01*
X85116Y252857D01*
X85357Y253018D01*
X86066Y253728D01*
X86550Y253506D01*
X86552Y253504D01*
X86669Y253222D01*
X87295Y252596D01*
X87577Y252479D01*
X87770Y252305D01*
X87944Y252112D01*
X88061Y251831D01*
X88687Y251204D01*
X88969Y251087D01*
X88971Y251086D01*
X89192Y250602D01*
X84121Y245530D01*
X83960Y245289D01*
X83903Y245005D01*
Y235347D01*
X82897Y234341D01*
X82636Y234449D01*
X81931D01*
X81280Y234179D01*
X80782Y233681D01*
X80512Y233030D01*
Y233026D01*
X79331D01*
Y236024D01*
X74606D01*
Y228543D01*
X79331D01*
Y231541D01*
X80914D01*
X81280Y231175D01*
X81931Y230906D01*
X82636D01*
X83287Y231175D01*
X83785Y231674D01*
X84055Y232325D01*
Y233030D01*
X83947Y233291D01*
X85171Y234514D01*
X85332Y234755D01*
X85388Y235039D01*
Y244698D01*
X86047Y245356D01*
X86435Y245037D01*
X86322Y244868D01*
X86265Y244584D01*
Y221961D01*
X81406Y217101D01*
X80905Y217308D01*
Y218280D01*
X73425D01*
Y216962D01*
X68898D01*
Y217892D01*
X63976D01*
Y216962D01*
X52559D01*
Y217892D01*
X47638D01*
Y216962D01*
X43110D01*
Y218280D01*
X35630D01*
Y211980D01*
X43110D01*
Y215476D01*
X47638D01*
Y214546D01*
X52559D01*
Y215476D01*
X63976D01*
Y214546D01*
X68898D01*
Y215476D01*
X73425D01*
Y213555D01*
X80905D01*
Y215399D01*
X81496D01*
X81780Y215456D01*
X82021Y215617D01*
X87533Y221128D01*
X87694Y221369D01*
X87751Y221654D01*
Y244276D01*
X88409Y244935D01*
X88797Y244616D01*
X88684Y244446D01*
X88627Y244162D01*
Y210150D01*
X78577Y200099D01*
X78077Y200306D01*
Y201216D01*
X78169Y201254D01*
X78667Y201752D01*
X78937Y202403D01*
Y203108D01*
X78667Y203760D01*
X78169Y204258D01*
X78077Y204296D01*
Y206075D01*
X80905D01*
Y210799D01*
X73425D01*
Y206075D01*
X76254D01*
Y204296D01*
X76162Y204258D01*
X75663Y203760D01*
X75625Y203667D01*
X53902D01*
X53864Y203760D01*
X53366Y204258D01*
X52715Y204528D01*
X52010D01*
X51359Y204258D01*
X50860Y203760D01*
X50591Y203108D01*
Y202403D01*
X50860Y201752D01*
X51359Y201254D01*
X52010Y200984D01*
X52715D01*
X53366Y201254D01*
X53864Y201752D01*
X53902Y201845D01*
X75625D01*
X75663Y201752D01*
X76162Y201254D01*
X76254Y201216D01*
Y199984D01*
X54387Y178117D01*
X54190Y177821D01*
X54120Y177472D01*
Y174279D01*
X52669D01*
Y170343D01*
X57394D01*
Y174279D01*
X55943D01*
Y177095D01*
X64327Y185479D01*
X64789Y185288D01*
Y174279D01*
X63169D01*
Y170343D01*
X67894D01*
Y174279D01*
X66274D01*
Y185696D01*
X75135Y194558D01*
X75635Y194351D01*
Y174279D01*
X73669D01*
Y170343D01*
X78394D01*
Y174279D01*
X77121D01*
Y194574D01*
X92257Y209711D01*
X92418Y209952D01*
X92475Y210236D01*
Y242606D01*
X97316Y247447D01*
X97735Y247028D01*
X98074Y246888D01*
X98413Y247028D01*
X99039Y247655D01*
X99156Y247937D01*
X99330Y248129D01*
X99523Y248304D01*
X99805Y248420D01*
X100431Y249047D01*
X100548Y249328D01*
X100549Y249330D01*
X101033Y249552D01*
X102407Y248178D01*
Y243615D01*
X93569Y234777D01*
X93408Y234536D01*
X93352Y234252D01*
Y229528D01*
X93408Y229243D01*
X93569Y229002D01*
X98888Y223684D01*
X98681Y223184D01*
X97279D01*
X97171Y223445D01*
X96673Y223943D01*
X96022Y224213D01*
X95317D01*
X94666Y223943D01*
X94167Y223445D01*
X93898Y222793D01*
Y222089D01*
X94167Y221437D01*
X94666Y220939D01*
X95317Y220669D01*
X96022D01*
X96673Y220939D01*
X97171Y221437D01*
X97279Y221698D01*
X100977D01*
X103855Y218820D01*
X102641Y217605D01*
X105007Y215239D01*
X108487Y218719D01*
X106121Y221085D01*
X104906Y219870D01*
X102003Y222773D01*
X102210Y223273D01*
X103715D01*
X103999Y223330D01*
X104240Y223491D01*
X106037Y225288D01*
X107182Y224143D01*
X108540Y225500D01*
X111029Y223011D01*
X110363Y222345D01*
X112003Y220706D01*
X110413Y219115D01*
X110105Y218654D01*
X109996Y218110D01*
Y209250D01*
X104923Y204177D01*
X90455D01*
X90374Y204258D01*
X89723Y204528D01*
X89018D01*
X88367Y204258D01*
X87868Y203760D01*
X87598Y203108D01*
Y202403D01*
X87868Y201752D01*
X88367Y201254D01*
X89018Y200984D01*
X89723D01*
X90374Y201254D01*
X90455Y201335D01*
X105512D01*
X106056Y201443D01*
X106517Y201751D01*
X112422Y207657D01*
X112730Y208118D01*
X112838Y208661D01*
Y217522D01*
X114013Y218696D01*
X115653Y217056D01*
X118993Y220397D01*
X113704Y225686D01*
X113038Y225021D01*
X110549Y227510D01*
X112471Y229432D01*
X111904Y229999D01*
X113899Y231993D01*
X114663Y231229D01*
X119952Y236519D01*
X116611Y239859D01*
X111322Y234570D01*
X111889Y234003D01*
X109895Y232009D01*
X109131Y232773D01*
X103841Y227483D01*
X104987Y226338D01*
X103407Y224758D01*
X99914D01*
X94837Y229835D01*
Y233944D01*
X99151Y238258D01*
X99651Y238051D01*
Y236221D01*
X99708Y235936D01*
X99869Y235695D01*
X100672Y234892D01*
X98552Y232773D01*
X99586Y231739D01*
X99039Y231191D01*
X98778Y231299D01*
X98073D01*
X97422Y231030D01*
X96923Y230531D01*
X96653Y229880D01*
Y229175D01*
X96923Y228524D01*
X97422Y228026D01*
X98073Y227756D01*
X98778D01*
X99429Y228026D01*
X99927Y228524D01*
X100197Y229175D01*
Y229880D01*
X100089Y230141D01*
X100636Y230689D01*
X101893Y229432D01*
X107182Y234721D01*
X103841Y238062D01*
X101722Y235943D01*
X101136Y236528D01*
Y238275D01*
X105250Y242388D01*
X105411Y242629D01*
X105467Y242913D01*
Y243957D01*
X105967Y244164D01*
X108152Y241979D01*
X106032Y239859D01*
X109373Y236519D01*
X114662Y241808D01*
X111322Y245149D01*
X109202Y243029D01*
X107042Y245189D01*
Y249129D01*
X107504Y249320D01*
X108573Y248251D01*
X108465Y247990D01*
Y247285D01*
X108734Y246634D01*
X109233Y246136D01*
X109884Y245866D01*
X110589D01*
X111240Y246136D01*
X111738Y246634D01*
X112008Y247285D01*
Y247990D01*
X111738Y248641D01*
X111240Y249140D01*
X110589Y249410D01*
X109884D01*
X109623Y249301D01*
X107042Y251882D01*
Y253688D01*
X106985Y253972D01*
X106872Y254141D01*
X107260Y254460D01*
X124060Y237660D01*
Y231804D01*
X121113Y228856D01*
X118993Y230975D01*
X115653Y227635D01*
X120942Y222345D01*
X121443Y222847D01*
X123240Y221050D01*
X121538Y219348D01*
X126828Y214058D01*
X128537Y215768D01*
X129990Y214315D01*
X129332Y213657D01*
X132812Y210177D01*
X133470Y210835D01*
X141544Y202762D01*
X140885Y202104D01*
X144365Y198624D01*
X146732Y200990D01*
X143252Y204470D01*
X142594Y203812D01*
X134520Y211885D01*
X135179Y212543D01*
X131699Y216023D01*
X131041Y215365D01*
X129588Y216818D01*
X131282Y218512D01*
X125993Y223802D01*
X124291Y222100D01*
X122494Y223897D01*
X124283Y225686D01*
X122163Y227806D01*
X125328Y230971D01*
X125489Y231212D01*
X125546Y231496D01*
Y237968D01*
X125489Y238252D01*
X125328Y238493D01*
X112026Y251795D01*
X112345Y252183D01*
X112514Y252070D01*
X112799Y252013D01*
X121653D01*
X121938Y252070D01*
X122179Y252231D01*
X128235Y258287D01*
X129663Y256858D01*
X131428Y258622D01*
X132603Y257447D01*
X132064Y256908D01*
X135544Y253428D01*
X137911Y255794D01*
X136867Y256838D01*
X141612Y261583D01*
X141797Y261477D01*
X142532Y261280D01*
X143294D01*
X144030Y261477D01*
X144690Y261858D01*
X145229Y262397D01*
X145610Y263056D01*
X145807Y263792D01*
Y264554D01*
X145610Y265290D01*
X145229Y265950D01*
X144690Y266489D01*
X144030Y266870D01*
X143294Y267067D01*
X142532D01*
X141797Y266870D01*
X141137Y266489D01*
X140598Y265950D01*
X140217Y265290D01*
X140020Y264554D01*
Y263792D01*
X140217Y263056D01*
X140323Y262872D01*
X135578Y258127D01*
X134431Y259274D01*
X133892Y258735D01*
X132716Y259911D01*
X134953Y262148D01*
X131612Y265488D01*
X126323Y260199D01*
X127184Y259337D01*
X121346Y253499D01*
X113106D01*
X108907Y257698D01*
X108923Y257737D01*
X108783Y258076D01*
X106978Y259881D01*
X106935Y260173D01*
X106978Y260466D01*
X108783Y262270D01*
X108794Y262297D01*
X115664Y269167D01*
X121355D01*
X123034Y267489D01*
X121033Y265488D01*
X124374Y262148D01*
X129663Y267437D01*
X128998Y268103D01*
X131149Y270254D01*
X131898Y269505D01*
X137188Y274795D01*
X135965Y276017D01*
X187546Y327597D01*
X188202Y327421D01*
X188964D01*
X189700Y327619D01*
X190359Y327999D01*
X190898Y328538D01*
X191279Y329198D01*
X191476Y329934D01*
Y330696D01*
X191300Y331352D01*
X201398Y341450D01*
X201707Y341911D01*
X201815Y342455D01*
Y406693D01*
X201707Y407237D01*
X201398Y407698D01*
X197441Y411655D01*
Y412795D01*
X192520D01*
Y409646D01*
X195431D01*
X198973Y406104D01*
Y343043D01*
X189101Y333172D01*
X188964Y333209D01*
X188202D01*
X187466Y333012D01*
X186806Y332630D01*
X186267Y332092D01*
X185886Y331432D01*
X185689Y330696D01*
Y329934D01*
X185726Y329797D01*
X133956Y278027D01*
X132733Y279249D01*
X127444Y273959D01*
X129140Y272264D01*
X126988Y270112D01*
X126323Y270778D01*
X124322Y268777D01*
X122377Y270723D01*
X122081Y270921D01*
X121732Y270990D01*
X115287D01*
X115046Y270942D01*
X114788Y271161D01*
X114788Y271161D01*
X114677Y271340D01*
X114719Y271552D01*
Y301181D01*
X114961D01*
Y302435D01*
X118504D01*
Y301069D01*
X123228D01*
Y302127D01*
X126181D01*
Y301069D01*
X133661D01*
Y307368D01*
X126181D01*
Y303949D01*
X123228D01*
Y305006D01*
X118504D01*
Y304258D01*
X114961D01*
Y305512D01*
X111524D01*
X111024Y305512D01*
X110524Y305512D01*
X107087D01*
Y301181D01*
X107206D01*
Y285422D01*
X105561Y283776D01*
X105418Y283800D01*
X105073Y283996D01*
Y319377D01*
X107788Y322092D01*
X110322D01*
X111265Y321149D01*
X111219Y320668D01*
X110765Y320480D01*
X110452Y320793D01*
X109801Y321063D01*
X109096D01*
X108445Y320793D01*
X107947Y320295D01*
X107677Y319644D01*
Y318939D01*
X107947Y318288D01*
X108445Y317789D01*
X109041Y317543D01*
Y314232D01*
X109055Y314161D01*
Y311811D01*
X111024Y311811D01*
X111524Y311811D01*
X114961D01*
Y316142D01*
X114719D01*
Y317435D01*
X114804Y317520D01*
X115313D01*
X115964Y317789D01*
X116463Y318288D01*
X116732Y318939D01*
Y319644D01*
X116463Y320295D01*
X115964Y320793D01*
X115313Y321063D01*
X114608D01*
X113957Y320793D01*
X113459Y320295D01*
X113251Y319792D01*
X112750Y319892D01*
Y321457D01*
X112694Y321741D01*
X112533Y321982D01*
X111155Y323360D01*
X110914Y323521D01*
X110630Y323577D01*
X107480D01*
X107196Y323521D01*
X106955Y323360D01*
X103806Y320210D01*
X103645Y319969D01*
X103588Y319685D01*
Y284166D01*
X97549Y278126D01*
X97388Y277886D01*
X97331Y277601D01*
Y272915D01*
X95930Y271514D01*
X95638Y271471D01*
X95345Y271514D01*
X93541Y273318D01*
X93202Y273459D01*
X93163Y273442D01*
X93142Y273462D01*
X92901Y273623D01*
X92737Y273656D01*
X90894Y275499D01*
Y318584D01*
X144320Y372010D01*
X144481Y372251D01*
X144538Y372535D01*
Y398665D01*
X147179Y401306D01*
X147340Y401546D01*
X147384Y401772D01*
X148228D01*
Y407283D01*
X145079D01*
Y401772D01*
X145079D01*
X145215Y401442D01*
X143270Y399498D01*
X143229Y399435D01*
X142699Y399388D01*
X142651Y399403D01*
X142651Y399403D01*
X140612Y401442D01*
X140748Y401772D01*
X140748D01*
Y406028D01*
X141248Y406295D01*
X141316Y406250D01*
Y404959D01*
X141405Y404512D01*
X141658Y404134D01*
X142089Y403703D01*
X142467Y403450D01*
X142913Y403362D01*
X143360Y403450D01*
X143738Y403703D01*
X143991Y404081D01*
X144079Y404528D01*
X143991Y404974D01*
X143738Y405352D01*
X143648Y405442D01*
Y407124D01*
X143577Y407482D01*
X143764Y407767D01*
X143925Y407923D01*
X144095Y407889D01*
X152273D01*
X152628Y407534D01*
X152953Y407317D01*
Y402953D01*
X160433D01*
Y409252D01*
X158114D01*
Y415798D01*
X158576Y415989D01*
X159843Y414723D01*
Y413189D01*
X162992D01*
Y416732D01*
X161852D01*
X160585Y417999D01*
X160777Y418461D01*
X200396D01*
X214350Y404507D01*
X214810Y404199D01*
X215354Y404091D01*
X240779D01*
X241132Y403737D01*
X241045Y381736D01*
X241045Y381736D01*
X241037Y379725D01*
X240759Y375711D01*
X240221Y371725D01*
X239425Y367781D01*
X238373Y363898D01*
X237072Y360091D01*
X235525Y356378D01*
X233739Y352773D01*
X231723Y349291D01*
X229485Y345948D01*
X227034Y342758D01*
X224380Y339735D01*
X222958Y338312D01*
X186085Y301440D01*
X186085Y301440D01*
X184543Y299811D01*
X181622Y296407D01*
X178930Y292819D01*
X176479Y289062D01*
X174278Y285154D01*
X172338Y281110D01*
X170667Y276947D01*
X169271Y272684D01*
X168157Y268339D01*
X167330Y263931D01*
X166793Y259478D01*
X166548Y254999D01*
X166535Y252756D01*
X166535Y122414D01*
X166074Y122223D01*
X159547Y128749D01*
Y131004D01*
X156201D01*
Y126083D01*
X159547D01*
X159547Y126083D01*
Y126083D01*
X159917Y125802D01*
X166535Y119184D01*
Y92933D01*
X166477Y92871D01*
X166035Y92680D01*
X165900Y92771D01*
X165551Y92840D01*
X165202Y92771D01*
X164907Y92573D01*
X164709Y92278D01*
X164640Y91929D01*
X164709Y91580D01*
X164738Y91537D01*
Y85138D01*
X164808Y84789D01*
X165005Y84493D01*
X165104Y84395D01*
X165399Y84197D01*
X165748Y84128D01*
X166035Y84185D01*
X166173Y84144D01*
X166535Y83889D01*
Y55905D01*
X166535Y55905D01*
Y53786D01*
X166203Y49561D01*
X165540Y45375D01*
X164550Y41254D01*
X163241Y37223D01*
X161619Y33307D01*
X159695Y29530D01*
X157480Y25917D01*
X154989Y22488D01*
X152236Y19265D01*
X149239Y16268D01*
X146016Y13515D01*
X142587Y11024D01*
X138973Y8809D01*
X135197Y6885D01*
X131281Y5263D01*
X127250Y3954D01*
X123129Y2964D01*
X118943Y2301D01*
X114718Y1969D01*
X112598Y1969D01*
X55118D01*
X53030Y1969D01*
X48866Y2296D01*
X44741Y2950D01*
X40680Y3924D01*
X36708Y5215D01*
X32849Y6813D01*
X29128Y8709D01*
X25567Y10892D01*
X22188Y13347D01*
X19012Y16059D01*
X16059Y19012D01*
X13347Y22188D01*
X10892Y25567D01*
X8709Y29128D01*
X6813Y32849D01*
X5215Y36708D01*
X3924Y40680D01*
X2950Y44741D01*
X2296Y48866D01*
X1969Y53030D01*
Y55118D01*
Y230315D01*
Y234479D01*
X2211Y235696D01*
X2685Y236842D01*
X3375Y237874D01*
X4252Y238751D01*
X5284Y239440D01*
X6430Y239915D01*
X7647Y240158D01*
X9055D01*
X11392Y240164D01*
X11811Y240158D01*
X27953D01*
X28634Y240158D01*
X29134Y240158D01*
Y240158D01*
X29597Y240180D01*
X29622Y240185D01*
X30505Y240361D01*
X31361Y240715D01*
X32131Y241230D01*
X32786Y241884D01*
X33301Y242655D01*
X33655Y243510D01*
X33836Y244419D01*
X33858Y244882D01*
X33858Y248819D01*
Y252756D01*
Y257677D01*
X36220D01*
Y258313D01*
X49409D01*
Y257480D01*
X52953D01*
Y258313D01*
X56299D01*
Y257283D01*
X59449D01*
Y260827D01*
X56299D01*
Y259798D01*
X52953D01*
Y260630D01*
X49409D01*
Y259798D01*
X36220D01*
Y260433D01*
X33858D01*
Y305906D01*
X33858Y305906D01*
X33858Y305906D01*
X33834Y306486D01*
X33613Y307625D01*
X33173Y308698D01*
X32531Y309663D01*
X31710Y310484D01*
X30745Y311126D01*
X29672Y311566D01*
X28533Y311786D01*
X27953Y311811D01*
X7874Y311811D01*
X7873Y311811D01*
X7292Y311810D01*
X6150Y312036D01*
X5075Y312481D01*
X4107Y313127D01*
X3284Y313950D01*
X2638Y314917D01*
X2193Y315993D01*
X1968Y317134D01*
X1969Y317716D01*
X1969Y424409D01*
X1969D01*
X1969Y424409D01*
X1997Y426005D01*
X2368Y429175D01*
X3047Y432294D01*
X4029Y435331D01*
X5304Y438257D01*
X6859Y441044D01*
X8681Y443666D01*
X10750Y446096D01*
X13048Y448312D01*
X15552Y450291D01*
X18237Y452016D01*
X21079Y453469D01*
X24050Y454637D01*
X27121Y455508D01*
X30262Y456073D01*
X33444Y456328D01*
X35039Y456299D01*
D02*
G37*
G36*
X111265Y284316D02*
Y272675D01*
X109229Y270639D01*
X108840Y270957D01*
X108954Y271127D01*
X109010Y271411D01*
Y276343D01*
X109271Y276451D01*
X109770Y276949D01*
X110039Y277600D01*
Y278305D01*
X109770Y278956D01*
X109271Y279455D01*
X108620Y279724D01*
X107915D01*
X107264Y279455D01*
X106766Y278956D01*
X106496Y278305D01*
Y277600D01*
X106766Y276949D01*
X107264Y276451D01*
X107525Y276343D01*
Y271719D01*
X105292Y269485D01*
X104903Y269804D01*
X105017Y269974D01*
X105073Y270258D01*
Y272406D01*
X105334Y272514D01*
X105833Y273012D01*
X106102Y273663D01*
Y274368D01*
X105833Y275019D01*
X105334Y275518D01*
X104683Y275787D01*
X103978D01*
X103327Y275518D01*
X102829Y275019D01*
X102559Y274368D01*
Y273663D01*
X102829Y273012D01*
X103327Y272514D01*
X103588Y272406D01*
Y270566D01*
X102449Y269427D01*
X102005Y269595D01*
X101939Y269695D01*
X101992Y269961D01*
Y275351D01*
X110564Y283924D01*
X110725Y284165D01*
X110765Y284365D01*
X111265Y284316D01*
D02*
G37*
G36*
X95930Y270686D02*
X96482Y270135D01*
X96759Y270020D01*
X96821Y269994D01*
X97107Y269708D01*
X97133Y269646D01*
X97248Y269369D01*
X97874Y268743D01*
X98151Y268628D01*
X98213Y268602D01*
X98499Y268316D01*
X98525Y268254D01*
X98640Y267977D01*
X99266Y267351D01*
X99548Y267234D01*
X99741Y267060D01*
X99915Y266867D01*
X100031Y266585D01*
X100658Y265959D01*
X100940Y265842D01*
X101133Y265668D01*
X101307Y265475D01*
X101423Y265193D01*
X102050Y264567D01*
X102331Y264450D01*
X102524Y264276D01*
X102699Y264083D01*
X102815Y263801D01*
X103442Y263175D01*
X103718Y263060D01*
X103781Y263035D01*
X104067Y262748D01*
X104093Y262686D01*
X104207Y262409D01*
X104834Y261783D01*
X105115Y261666D01*
X105308Y261492D01*
X105482Y261299D01*
X105599Y261017D01*
X106151Y260466D01*
X106194Y260173D01*
X106151Y259881D01*
X105599Y259329D01*
X105482Y259047D01*
X105308Y258854D01*
X105115Y258680D01*
X104834Y258563D01*
X104207Y257937D01*
X104090Y257655D01*
X103916Y257462D01*
X103723Y257288D01*
X103442Y257172D01*
X102815Y256545D01*
X102699Y256263D01*
X102524Y256070D01*
X102331Y255896D01*
X102050Y255780D01*
X101423Y255153D01*
X101307Y254872D01*
X101132Y254678D01*
X100940Y254504D01*
X100658Y254388D01*
X100031Y253761D01*
X99917Y253485D01*
X99891Y253422D01*
X99605Y253136D01*
X99543Y253110D01*
X99266Y252996D01*
X98640Y252369D01*
X98523Y252088D01*
X98348Y251894D01*
X98156Y251720D01*
X97874Y251604D01*
X97247Y250977D01*
X97131Y250696D01*
X96957Y250503D01*
X96764Y250328D01*
X96482Y250212D01*
X95930Y249660D01*
X95638Y249617D01*
X95345Y249660D01*
X94794Y250212D01*
X94512Y250328D01*
X94319Y250503D01*
X94145Y250696D01*
X94028Y250977D01*
X93402Y251604D01*
X93120Y251720D01*
X92927Y251895D01*
X92753Y252088D01*
X92636Y252369D01*
X92010Y252996D01*
X91728Y253112D01*
X91535Y253287D01*
X91361Y253480D01*
X91244Y253761D01*
X90618Y254388D01*
X90336Y254504D01*
X90143Y254679D01*
X89969Y254872D01*
X89852Y255153D01*
X89226Y255780D01*
X88944Y255896D01*
X88751Y256070D01*
X88577Y256263D01*
X88460Y256545D01*
X87834Y257172D01*
X87557Y257286D01*
X87495Y257312D01*
X87209Y257598D01*
X87183Y257660D01*
X87068Y257937D01*
X86442Y258563D01*
X86160Y258680D01*
X85967Y258854D01*
X85793Y259047D01*
X85676Y259329D01*
X85125Y259881D01*
X85082Y260173D01*
X85125Y260466D01*
X85676Y261017D01*
X85791Y261294D01*
X85817Y261356D01*
X86103Y261643D01*
X86165Y261668D01*
X86442Y261783D01*
X87068Y262409D01*
X87185Y262691D01*
X87359Y262884D01*
X87552Y263058D01*
X87834Y263175D01*
X88460Y263801D01*
X88577Y264083D01*
X88751Y264276D01*
X88944Y264450D01*
X89226Y264567D01*
X89852Y265193D01*
X89969Y265475D01*
X90143Y265668D01*
X90336Y265842D01*
X90618Y265959D01*
X91244Y266585D01*
X91361Y266867D01*
X91535Y267060D01*
X91728Y267234D01*
X92010Y267351D01*
X92636Y267977D01*
X92753Y268259D01*
X92927Y268452D01*
X93120Y268626D01*
X93402Y268743D01*
X94028Y269369D01*
X94143Y269646D01*
X94169Y269708D01*
X94455Y269994D01*
X94517Y270020D01*
X94794Y270135D01*
X95345Y270686D01*
X95638Y270729D01*
X95930Y270686D01*
D02*
G37*
G36*
X95899Y248837D02*
X96191Y248422D01*
X91207Y243439D01*
X91207Y243439D01*
X91046Y243198D01*
X90990Y242913D01*
Y210544D01*
X90613Y210167D01*
X90113Y210374D01*
Y243854D01*
X93163Y246904D01*
X93202Y246888D01*
X93541Y247028D01*
X95345Y248833D01*
X95638Y248876D01*
X95899Y248837D01*
D02*
G37*
G36*
X451573Y184252D02*
X551181Y184252D01*
X551181Y184252D01*
X551181Y184252D01*
X552394Y184252D01*
X554799Y183935D01*
X557142Y183308D01*
X559383Y182379D01*
X561483Y181167D01*
X563408Y179690D01*
X565123Y177975D01*
X566600Y176050D01*
X567812Y173950D01*
X568741Y171709D01*
X569368Y169366D01*
X569685Y166961D01*
Y165748D01*
X569685Y164561D01*
X569375Y162207D01*
X568761Y159914D01*
X567852Y157721D01*
X566665Y155665D01*
X565220Y153781D01*
X563541Y152103D01*
X561658Y150658D01*
X559602Y149471D01*
X557409Y148562D01*
X555116Y147948D01*
X552762Y147638D01*
X551575Y147638D01*
X428808D01*
X428808Y147638D01*
X427867Y147615D01*
X425994Y147430D01*
X424149Y147063D01*
X422349Y146517D01*
X420610Y145797D01*
X418951Y144910D01*
X417387Y143865D01*
X415932Y142671D01*
X415251Y142022D01*
X414342Y141113D01*
X414342D01*
X413901Y140673D01*
X412939Y139883D01*
X411904Y139191D01*
X410806Y138604D01*
X409655Y138128D01*
X408464Y137767D01*
X407242Y137524D01*
X406003Y137402D01*
X405381Y137402D01*
X404693Y137402D01*
X403343Y137670D01*
X402071Y138195D01*
X400926Y138959D01*
X399951Y139931D01*
X399184Y141074D01*
X398655Y142344D01*
X398383Y143693D01*
X398379Y145070D01*
X398644Y146420D01*
X399166Y147694D01*
X399926Y148841D01*
X400411Y149330D01*
X423397Y172511D01*
X423397Y172511D01*
X423397Y172511D01*
X424777Y173903D01*
X427798Y176401D01*
X431050Y178589D01*
X434502Y180446D01*
X438120Y181953D01*
X441869Y183097D01*
X445713Y183866D01*
X449614Y184252D01*
X451573Y184252D01*
D02*
G37*
G36*
X531102Y94882D02*
X532804Y94882D01*
X536192Y94548D01*
X539531Y93884D01*
X542788Y92896D01*
X545933Y91593D01*
X548935Y89989D01*
X551766Y88097D01*
X554397Y85938D01*
X556804Y83531D01*
X558964Y80900D01*
X560855Y78069D01*
X562459Y75067D01*
X563762Y71922D01*
X564750Y68664D01*
X565414Y65326D01*
X565748Y61938D01*
X565748Y60236D01*
X565748Y60236D01*
X565748Y60236D01*
X565748Y31890D01*
X565748Y30575D01*
X565490Y27957D01*
X564977Y25377D01*
X564214Y22860D01*
X563207Y20430D01*
X561967Y18110D01*
X560505Y15923D01*
X558837Y13889D01*
X556977Y12029D01*
X554944Y10361D01*
X552756Y8899D01*
X550436Y7659D01*
X548006Y6653D01*
X545489Y5889D01*
X542909Y5376D01*
X540292Y5118D01*
X538976Y5118D01*
X538976Y5118D01*
X538976Y5118D01*
X245276D01*
X243959Y5118D01*
X241350Y5462D01*
X238808Y6143D01*
X236376Y7150D01*
X234097Y8466D01*
X232008Y10068D01*
X230147Y11930D01*
X228545Y14018D01*
X227229Y16297D01*
X226222Y18729D01*
X225540Y21271D01*
X225197Y23881D01*
X225197Y25197D01*
X225197Y25197D01*
Y26539D01*
X225547Y29199D01*
X226059Y31109D01*
X226685Y31026D01*
X251658D01*
X252413Y31126D01*
X253117Y31417D01*
X253721Y31881D01*
X254185Y32486D01*
X254477Y33189D01*
X254576Y33945D01*
X254477Y34700D01*
X254185Y35404D01*
X253721Y36009D01*
X253117Y36472D01*
X252413Y36764D01*
X251658Y36864D01*
X229382D01*
X229161Y37312D01*
X230244Y38724D01*
X232142Y40622D01*
X234271Y42256D01*
X236595Y43597D01*
X239074Y44624D01*
X241667Y45319D01*
X244327Y45669D01*
X245669Y45669D01*
X245669Y45669D01*
X319627D01*
X322404Y45714D01*
X327947Y46072D01*
X333454Y46786D01*
X338905Y47853D01*
X344275Y49270D01*
X349543Y51029D01*
X354687Y53124D01*
X359685Y55546D01*
X364516Y58284D01*
X369162Y61329D01*
X373601Y64666D01*
X377816Y68282D01*
X379834Y70191D01*
X379834Y70191D01*
X381836Y72145D01*
X386082Y75788D01*
X390555Y79151D01*
X395235Y82218D01*
X400102Y84977D01*
X405138Y87417D01*
X410320Y89528D01*
X415627Y91300D01*
X421037Y92727D01*
X426528Y93802D01*
X432077Y94521D01*
X437661Y94882D01*
X440458Y94882D01*
X440458Y94882D01*
X531102Y94882D01*
D02*
G37*
%LPC*%
G36*
X127071Y440074D02*
X126149Y439890D01*
X125368Y439368D01*
X124846Y438587D01*
X124662Y437665D01*
Y432941D01*
X124846Y432019D01*
X125368Y431238D01*
X126149Y430716D01*
X127071Y430533D01*
X127993Y430716D01*
X128774Y431238D01*
X129296Y432019D01*
X129479Y432941D01*
Y437665D01*
X129296Y438587D01*
X128774Y439368D01*
X127993Y439890D01*
X127071Y440074D01*
D02*
G37*
G36*
X184547Y408646D02*
X180709D01*
X180262Y408558D01*
X179884Y408305D01*
X179152Y407573D01*
X179069Y407517D01*
X175286Y403735D01*
X175197Y403753D01*
X174751Y403664D01*
X174372Y403411D01*
X173505Y402544D01*
X165354D01*
X164908Y402455D01*
X164530Y402203D01*
X163705Y401378D01*
X163452Y400999D01*
X163386Y400665D01*
X160989Y398269D01*
X156693D01*
X156247Y398180D01*
X155868Y397927D01*
X155616Y397549D01*
X155527Y397102D01*
X155616Y396656D01*
X155868Y396278D01*
X156247Y396025D01*
X156693Y395936D01*
X161472D01*
X161919Y396025D01*
X162297Y396278D01*
X165354Y399335D01*
X165607Y399713D01*
X165673Y400048D01*
X165837Y400212D01*
X173988D01*
X174031Y400177D01*
Y394882D01*
X174119Y394436D01*
X174372Y394057D01*
X176734Y391695D01*
X177113Y391442D01*
X177559Y391354D01*
X185264D01*
X185710Y391442D01*
X186088Y391695D01*
X186341Y392073D01*
X186430Y392520D01*
X186341Y392966D01*
X186088Y393344D01*
X185710Y393597D01*
X185264Y393686D01*
X178042D01*
X176363Y395365D01*
Y401513D01*
X180663Y405813D01*
X180746Y405868D01*
X181192Y406314D01*
X184547D01*
X184994Y406403D01*
X185372Y406656D01*
X185625Y407034D01*
X185713Y407480D01*
X185625Y407927D01*
X185372Y408305D01*
X184994Y408558D01*
X184547Y408646D01*
D02*
G37*
G36*
X166929Y416732D02*
X163779D01*
Y413189D01*
X164385D01*
Y409252D01*
X163386D01*
Y405315D01*
X168110D01*
Y409252D01*
X166717D01*
Y409956D01*
X171457D01*
Y408437D01*
X178937D01*
Y410054D01*
X182087D01*
Y409646D01*
X184866D01*
X184978Y409623D01*
X187547D01*
X187810Y409360D01*
Y405995D01*
X187153Y405337D01*
X184978D01*
X184866Y405315D01*
X182087D01*
Y402165D01*
X187008D01*
Y403005D01*
X187636D01*
X188082Y403094D01*
X188460Y403347D01*
X189801Y404687D01*
X190054Y405065D01*
X190143Y405512D01*
Y409842D01*
X190054Y410289D01*
X189801Y410667D01*
X188854Y411614D01*
X188476Y411867D01*
X188030Y411955D01*
X187008D01*
Y412795D01*
X182087D01*
Y412387D01*
X178937D01*
Y414736D01*
X171457D01*
Y412288D01*
X166717D01*
Y413189D01*
X166929D01*
Y416732D01*
D02*
G37*
G36*
X197441Y405315D02*
X192520D01*
Y402165D01*
X193814D01*
Y396260D01*
X191114D01*
Y388779D01*
X197413D01*
Y396260D01*
X196146D01*
Y402165D01*
X197441D01*
Y405315D01*
D02*
G37*
G36*
X70431Y332087D02*
X69726D01*
X69075Y331817D01*
X68577Y331318D01*
X68539Y331226D01*
X54296D01*
X54258Y331318D01*
X53759Y331817D01*
X53108Y332087D01*
X52403D01*
X51752Y331817D01*
X51254Y331318D01*
X50984Y330667D01*
Y329963D01*
X51254Y329311D01*
X51752Y328813D01*
X52403Y328543D01*
X53108D01*
X53759Y328813D01*
X54258Y329311D01*
X54296Y329404D01*
X68539D01*
X68577Y329311D01*
X69075Y328813D01*
X69726Y328543D01*
X70431D01*
X71082Y328813D01*
X71581Y329311D01*
X71850Y329963D01*
Y330667D01*
X71581Y331318D01*
X71082Y331817D01*
X70431Y332087D01*
D02*
G37*
G36*
X129921Y314130D02*
X125142D01*
X124793Y314061D01*
X124497Y313863D01*
X121690Y311056D01*
X121493Y310760D01*
X121423Y310412D01*
Y310396D01*
X120882Y309855D01*
X120866D01*
X120518Y309785D01*
X120222Y309588D01*
X120024Y309292D01*
X119955Y308943D01*
X120024Y308595D01*
X120222Y308299D01*
X120518Y308102D01*
X120866Y308032D01*
X121260D01*
X121609Y308102D01*
X121904Y308299D01*
X122979Y309374D01*
X123177Y309669D01*
X123246Y310018D01*
Y310034D01*
X125519Y312308D01*
X129921D01*
X130270Y312377D01*
X130566Y312575D01*
X130763Y312870D01*
X130833Y313219D01*
X130763Y313568D01*
X130566Y313863D01*
X130270Y314061D01*
X129921Y314130D01*
D02*
G37*
G36*
X60159Y306673D02*
X59811Y306604D01*
X59515Y306406D01*
X59317Y306110D01*
X59304Y306044D01*
X57950Y304690D01*
X57752Y304394D01*
X57683Y304045D01*
Y303217D01*
X57752Y302868D01*
X57950Y302573D01*
X61577Y298946D01*
X61616Y298748D01*
X61813Y298452D01*
X62109Y298255D01*
X62458Y298186D01*
X62806Y298255D01*
X63102Y298452D01*
X63300Y298748D01*
X63369Y299097D01*
Y299353D01*
X63300Y299702D01*
X63102Y299998D01*
X59807Y303293D01*
Y303970D01*
X60804Y304966D01*
X61001Y305262D01*
X61071Y305611D01*
Y305762D01*
X61001Y306110D01*
X60804Y306406D01*
X60508Y306604D01*
X60159Y306673D01*
D02*
G37*
G36*
X72203Y301121D02*
X71645D01*
X71296Y301052D01*
X71000Y300855D01*
X70803Y300559D01*
X70733Y300210D01*
X70803Y299862D01*
X71000Y299566D01*
X71296Y299369D01*
X71645Y299299D01*
X71825D01*
X74879Y296246D01*
X73038Y294406D01*
X72944Y294387D01*
X72703Y294226D01*
X72542Y293985D01*
X72515Y293848D01*
X72386Y293656D01*
X72317Y293307D01*
X72386Y292958D01*
X72584Y292663D01*
X72880Y292465D01*
X72939Y292453D01*
X72944Y292450D01*
X73228Y292394D01*
X73513Y292450D01*
X73518Y292453D01*
X73577Y292465D01*
X73873Y292663D01*
X76811Y295602D01*
X77009Y295897D01*
X77078Y296246D01*
X77009Y296595D01*
X76811Y296890D01*
X76811Y296890D01*
X72847Y300855D01*
X72551Y301052D01*
X72203Y301121D01*
D02*
G37*
G36*
X78812Y301396D02*
X76585Y299169D01*
X79090Y296663D01*
X79861Y297435D01*
X80360Y296936D01*
Y296371D01*
X74706Y290717D01*
X71774D01*
X70855Y291636D01*
X70815Y291697D01*
X68397Y294115D01*
X69060Y294777D01*
X69235Y295199D01*
X69060Y295621D01*
X67055Y297626D01*
X66634Y297800D01*
X66212Y297626D01*
X63929Y295343D01*
X63754Y294921D01*
X63929Y294499D01*
X65933Y292495D01*
X66355Y292320D01*
X66777Y292495D01*
X67347Y293064D01*
X69110Y291301D01*
X67923Y290114D01*
X70429Y287608D01*
X72053Y289232D01*
X75014D01*
X75298Y289288D01*
X75539Y289450D01*
X81628Y295538D01*
X81788Y295779D01*
X81845Y296063D01*
Y297244D01*
X81788Y297528D01*
X81628Y297769D01*
X80912Y298485D01*
X81317Y298890D01*
X78812Y301396D01*
D02*
G37*
G36*
X47999Y283950D02*
X47650Y283880D01*
X47355Y283683D01*
X47157Y283387D01*
X47088Y283038D01*
X47157Y282690D01*
X47355Y282394D01*
X47772Y281977D01*
X48068Y281779D01*
X48417Y281710D01*
X54009D01*
X63255Y272465D01*
X63550Y272267D01*
X63899Y272198D01*
X64447D01*
X64796Y272267D01*
X65092Y272465D01*
X65289Y272760D01*
X65359Y273109D01*
X65289Y273458D01*
X65092Y273753D01*
X64796Y273951D01*
X64447Y274020D01*
X64276D01*
X55031Y283265D01*
X54736Y283463D01*
X54387Y283532D01*
X48794D01*
X48643Y283683D01*
X48348Y283880D01*
X47999Y283950D01*
D02*
G37*
G36*
X59055Y254528D02*
X55905D01*
Y253499D01*
X49409D01*
Y254500D01*
X41929D01*
Y248201D01*
X49409D01*
Y252013D01*
X55905D01*
Y250984D01*
X56738D01*
Y246681D01*
X52193D01*
Y239201D01*
X54600D01*
Y237146D01*
X53477Y236024D01*
X50591D01*
Y231299D01*
X52013D01*
Y230350D01*
X51752Y230242D01*
X51254Y229744D01*
X50984Y229093D01*
Y228388D01*
X51254Y227737D01*
X51752Y227238D01*
X52403Y226969D01*
X53108D01*
X53759Y227238D01*
X54258Y227737D01*
X54528Y228388D01*
Y229093D01*
X54258Y229744D01*
X53759Y230242D01*
X53499Y230350D01*
Y231299D01*
X54528D01*
Y231541D01*
X67126D01*
Y228543D01*
X71850D01*
Y236024D01*
X67126D01*
Y233026D01*
X54528D01*
Y234973D01*
X55868Y236314D01*
X56029Y236554D01*
X56085Y236839D01*
Y239201D01*
X58492D01*
Y246681D01*
X58223D01*
Y250984D01*
X59055D01*
Y254528D01*
D02*
G37*
G36*
X143478Y255516D02*
X141112Y253150D01*
X144592Y249670D01*
X146958Y252036D01*
X143478Y255516D01*
D02*
G37*
G36*
X102362Y212038D02*
X98882Y208558D01*
X101249Y206191D01*
X104728Y209671D01*
X102362Y212038D01*
D02*
G37*
G36*
X66437Y208665D02*
X40995D01*
X40646Y208596D01*
X40350Y208399D01*
X38726Y206774D01*
X38528Y206479D01*
X38459Y206130D01*
X38528Y205781D01*
X38726Y205486D01*
X39021Y205288D01*
X39370Y205219D01*
X39719Y205288D01*
X40014Y205486D01*
X41372Y206843D01*
X66437D01*
X66786Y206912D01*
X67081Y207110D01*
X67279Y207406D01*
X67348Y207754D01*
X67279Y208103D01*
X67081Y208399D01*
X66786Y208596D01*
X66437Y208665D01*
D02*
G37*
G36*
X120819Y213477D02*
X120046D01*
X119698Y213408D01*
X119402Y213210D01*
X119204Y212915D01*
X119135Y212566D01*
X119204Y212217D01*
X119402Y211922D01*
X119698Y211724D01*
X120046Y211655D01*
X120441D01*
X125626Y206470D01*
X137179Y194917D01*
X137475Y194720D01*
X137823Y194650D01*
X138172Y194720D01*
X138468Y194917D01*
X138665Y195213D01*
X138734Y195562D01*
X138665Y195910D01*
X138468Y196206D01*
X126915Y207759D01*
X121463Y213210D01*
X121167Y213408D01*
X120819Y213477D01*
D02*
G37*
G36*
X104318Y193445D02*
X103556D01*
X102820Y193248D01*
X102160Y192867D01*
X101621Y192328D01*
X101241Y191668D01*
X101043Y190932D01*
Y190170D01*
X101241Y189434D01*
X101621Y188774D01*
X102160Y188236D01*
X102820Y187855D01*
X103194Y187754D01*
Y183776D01*
X100398D01*
Y179051D01*
X107878D01*
Y183776D01*
X104680D01*
Y187754D01*
X105054Y187855D01*
X105714Y188236D01*
X106253Y188774D01*
X106633Y189434D01*
X106831Y190170D01*
Y190932D01*
X106633Y191668D01*
X106253Y192328D01*
X105714Y192867D01*
X105054Y193248D01*
X104318Y193445D01*
D02*
G37*
G36*
X93688D02*
X92926D01*
X92190Y193248D01*
X91530Y192867D01*
X90991Y192328D01*
X90611Y191668D01*
X90413Y190932D01*
Y190170D01*
X90611Y189434D01*
X90991Y188774D01*
X91530Y188236D01*
X92190Y187855D01*
X92564Y187754D01*
Y183776D01*
X88898D01*
Y179051D01*
X96378D01*
Y183776D01*
X94050D01*
Y187754D01*
X94424Y187855D01*
X95084Y188236D01*
X95623Y188774D01*
X96004Y189434D01*
X96201Y190170D01*
Y190932D01*
X96004Y191668D01*
X95623Y192328D01*
X95084Y192867D01*
X94424Y193248D01*
X93688Y193445D01*
D02*
G37*
G36*
X114643Y162512D02*
X113632D01*
X112656Y162250D01*
X111781Y161745D01*
X111066Y161030D01*
X110561Y160155D01*
X110299Y159179D01*
Y158168D01*
X110561Y157192D01*
X111066Y156316D01*
X111781Y155602D01*
X112656Y155096D01*
X113632Y154835D01*
X114643D01*
X115619Y155096D01*
X116495Y155602D01*
X117209Y156316D01*
X117715Y157192D01*
X117976Y158168D01*
Y159179D01*
X117715Y160155D01*
X117209Y161030D01*
X116495Y161745D01*
X115619Y162250D01*
X114643Y162512D01*
D02*
G37*
G36*
X107878Y176295D02*
X100398D01*
Y171571D01*
X102972D01*
Y162335D01*
X102656Y162250D01*
X101781Y161745D01*
X101066Y161030D01*
X100561Y160155D01*
X100299Y159179D01*
Y158168D01*
X100561Y157192D01*
X101066Y156316D01*
X101781Y155602D01*
X102656Y155096D01*
X103632Y154835D01*
X104643D01*
X105619Y155096D01*
X106495Y155602D01*
X107209Y156316D01*
X107715Y157192D01*
X107976Y158168D01*
Y159179D01*
X107715Y160155D01*
X107209Y161030D01*
X106495Y161745D01*
X105619Y162250D01*
X105304Y162335D01*
Y171571D01*
X107878D01*
Y176295D01*
D02*
G37*
G36*
X96378D02*
X88898D01*
Y171571D01*
X92972D01*
Y162335D01*
X92656Y162250D01*
X91781Y161745D01*
X91066Y161030D01*
X90561Y160155D01*
X90299Y159179D01*
Y158168D01*
X90561Y157192D01*
X91066Y156316D01*
X91781Y155602D01*
X92656Y155096D01*
X93632Y154835D01*
X94643D01*
X95619Y155096D01*
X96495Y155602D01*
X97209Y156316D01*
X97715Y157192D01*
X97976Y158168D01*
Y159179D01*
X97715Y160155D01*
X97209Y161030D01*
X96495Y161745D01*
X95619Y162250D01*
X95304Y162335D01*
Y171571D01*
X96378D01*
Y176295D01*
D02*
G37*
G36*
X78394Y168374D02*
X73669D01*
Y164437D01*
X74865D01*
Y158465D01*
X72291D01*
Y153740D01*
X79772D01*
Y158465D01*
X77198D01*
Y164437D01*
X78394D01*
Y168374D01*
D02*
G37*
G36*
X67894D02*
X63169D01*
Y164437D01*
X64365D01*
Y158465D01*
X61791D01*
Y153740D01*
X69272D01*
Y158465D01*
X66698D01*
Y164437D01*
X67894D01*
Y168374D01*
D02*
G37*
G36*
X57394D02*
X52669D01*
Y164437D01*
X53865D01*
Y158465D01*
X51378D01*
Y153740D01*
X58858D01*
Y158465D01*
X56198D01*
Y164437D01*
X57394D01*
Y168374D01*
D02*
G37*
G36*
X76032Y149533D02*
X55118D01*
X54769Y149464D01*
X54474Y149266D01*
X54276Y148971D01*
X54207Y148622D01*
X54276Y148273D01*
X54474Y147978D01*
X54769Y147780D01*
X55118Y147711D01*
X76032D01*
X76380Y147780D01*
X76676Y147978D01*
X76873Y148273D01*
X76943Y148622D01*
X76873Y148971D01*
X76676Y149266D01*
X76380Y149464D01*
X76032Y149533D01*
D02*
G37*
G36*
X114643Y152512D02*
X113632D01*
X112656Y152250D01*
X111781Y151745D01*
X111066Y151030D01*
X110561Y150155D01*
X110299Y149179D01*
Y148168D01*
X110561Y147192D01*
X111066Y146316D01*
X111781Y145602D01*
X112656Y145096D01*
X113632Y144835D01*
X114643D01*
X115619Y145096D01*
X116495Y145602D01*
X117209Y146316D01*
X117715Y147192D01*
X117976Y148168D01*
Y149179D01*
X117715Y150155D01*
X117209Y151030D01*
X116495Y151745D01*
X115619Y152250D01*
X114643Y152512D01*
D02*
G37*
G36*
X94643D02*
X93632D01*
X92656Y152250D01*
X91781Y151745D01*
X91066Y151030D01*
X90561Y150155D01*
X90299Y149179D01*
Y148168D01*
X90561Y147192D01*
X91066Y146316D01*
X91781Y145602D01*
X92656Y145096D01*
X93632Y144835D01*
X94643D01*
X95619Y145096D01*
X96495Y145602D01*
X97209Y146316D01*
X97715Y147192D01*
X97976Y148168D01*
Y149179D01*
X97715Y150155D01*
X97209Y151030D01*
X96495Y151745D01*
X95619Y152250D01*
X94643Y152512D01*
D02*
G37*
G36*
X155807Y140059D02*
X152461D01*
Y135138D01*
X155807D01*
Y140059D01*
D02*
G37*
%LPD*%
D12*
X158465Y128543D02*
X170071Y116937D01*
X325197Y110236D02*
X437795Y222835D01*
X483043D01*
X327163Y114173D02*
X422047Y209058D01*
X416535Y205517D02*
Y241508D01*
X331097Y120079D02*
X416535Y205517D01*
X199606Y114173D02*
X327163D01*
X238189Y120079D02*
X331097D01*
X422047Y209058D02*
Y238020D01*
X199606Y110236D02*
X325197D01*
X77165Y199606D02*
Y202756D01*
X55032Y172311D02*
Y177472D01*
X77165Y199606D01*
X52756Y330315D02*
X70079D01*
X77165Y202756D02*
Y208437D01*
X52362Y202756D02*
X77165D01*
X165650Y85138D02*
Y91831D01*
Y85138D02*
X165748Y85039D01*
X165551Y91929D02*
X165650Y91831D01*
X419201Y244764D02*
X421457Y247020D01*
X422047D01*
X419201Y244173D02*
Y244764D01*
X416535Y241508D02*
X419201Y244173D01*
X498650Y247189D02*
X498819Y247020D01*
X446815Y247189D02*
X498650D01*
X179526Y114173D02*
X179528D01*
X172835D02*
X179526D01*
X135091Y256351D02*
X142913Y264173D01*
X134987Y256351D02*
X135091D01*
X73228Y293307D02*
X76167Y296246D01*
X169291Y101772D02*
X170071Y102551D01*
X179344D02*
X179526Y102734D01*
X169291Y100984D02*
Y101772D01*
X170071Y102551D02*
X179344D01*
X170071Y116937D02*
X170071D01*
X172835Y114173D01*
X130638Y260701D02*
X134987Y256351D01*
X130638Y260701D02*
Y261173D01*
X285630Y91957D02*
X286221D01*
X271626Y77953D02*
X285630Y91957D01*
X218504Y77953D02*
X271626D01*
X208268Y88189D02*
X218504Y77953D01*
X208268Y88189D02*
Y93701D01*
X199606Y102362D02*
X208268Y93701D01*
X200027Y106299D02*
X213976Y92350D01*
X214567D01*
X199606Y106299D02*
X200027D01*
X286221Y91957D02*
X300835D01*
X307665Y85126D01*
X231441Y92350D02*
X238665Y85126D01*
X214567Y92350D02*
X231441D01*
X483043Y222835D02*
X498228Y238020D01*
X498819D01*
X54387Y282621D02*
X63899Y273109D01*
X153453Y408358D02*
X154437D01*
X156693Y406102D01*
X50098Y207754D02*
X66437D01*
X40995D02*
X50098D01*
X39370Y206130D02*
X40995Y207754D01*
X63899Y273109D02*
X64447D01*
X47999Y283038D02*
X48417Y282621D01*
X54387D01*
X58594Y304045D02*
X60159Y305611D01*
Y305762D01*
X58594Y303217D02*
Y304045D01*
Y303217D02*
X62458Y299353D01*
Y299097D02*
Y299353D01*
X72203Y300210D02*
X76167Y296246D01*
X71645Y300210D02*
X72203D01*
X76167Y296246D02*
X76167D01*
X126270Y207115D02*
X137823Y195562D01*
X120819Y212566D02*
X126270Y207115D01*
X120046Y212566D02*
X120819D01*
X115287Y270079D02*
X121732D01*
X107191Y261983D02*
X115287Y270079D01*
X121732D02*
X125348Y266463D01*
X65531Y148622D02*
X76032D01*
X55118D02*
X65531D01*
X61417Y252756D02*
X72610D01*
X122335Y310412D02*
X125142Y313219D01*
X122335Y310018D02*
Y310412D01*
X121260Y308943D02*
X122335Y310018D01*
X120866Y308943D02*
X121260D01*
X125142Y313219D02*
X129921D01*
X128740Y303038D02*
X129921Y304219D01*
X120866Y303038D02*
X128740D01*
X120557Y303346D02*
X120866Y303038D01*
X113976Y303346D02*
X120557D01*
X422047Y238020D02*
X440236D01*
X446815Y231441D01*
X516236Y238020D02*
X522815Y231441D01*
X498819Y238020D02*
X516236D01*
X498988Y247189D02*
X522815D01*
X498819Y247020D02*
X498988Y247189D01*
X422047Y247020D02*
X422217Y247189D01*
X446815D01*
D19*
X134987Y256351D02*
D03*
X144035Y252593D02*
D03*
X138746Y247304D02*
D03*
D20*
X157874Y128543D02*
D03*
X154134Y137598D02*
D03*
X161614D02*
D03*
X169291Y100984D02*
D03*
X173031Y91929D02*
D03*
X165551D02*
D03*
D21*
X105564Y218162D02*
D03*
X101805Y209115D02*
D03*
X96516Y214404D02*
D03*
D22*
X145083Y432350D02*
D03*
X147051D02*
D03*
X141146D02*
D03*
X143114D02*
D03*
X150988D02*
D03*
X149020D02*
D03*
X137209D02*
D03*
X139177D02*
D03*
D23*
X233858Y224410D02*
D03*
Y204724D02*
D03*
X292520Y224410D02*
D03*
Y204724D02*
D03*
D24*
X95638Y260173D02*
D03*
D25*
X61417Y252756D02*
D03*
X57480D02*
D03*
X57874Y259055D02*
D03*
X61811D02*
D03*
X165354Y414961D02*
D03*
X161417D02*
D03*
D26*
X110347Y240834D02*
D03*
X115637Y235544D02*
D03*
X125348Y266463D02*
D03*
X130638Y261173D02*
D03*
X108157Y228458D02*
D03*
X102867Y233747D02*
D03*
D27*
X120046Y212566D02*
D03*
X126410Y218930D02*
D03*
X54363Y289402D02*
D03*
X47999Y283038D02*
D03*
D28*
X84085Y261983D02*
D03*
X85477Y263375D02*
D03*
X86869Y264767D02*
D03*
X88261Y266159D02*
D03*
X89653Y267550D02*
D03*
X91044Y268942D02*
D03*
X92436Y270334D02*
D03*
X93828Y271726D02*
D03*
X107191Y258364D02*
D03*
X105799Y256972D02*
D03*
X104407Y255580D02*
D03*
X103015Y254188D02*
D03*
X101623Y252796D02*
D03*
X100231Y251404D02*
D03*
X98839Y250012D02*
D03*
X97447Y248620D02*
D03*
D29*
Y271726D02*
D03*
X98839Y270334D02*
D03*
X100231Y268942D02*
D03*
X101623Y267550D02*
D03*
X103015Y266159D02*
D03*
X104407Y264767D02*
D03*
X105799Y263375D02*
D03*
X107191Y261983D02*
D03*
X93828Y248620D02*
D03*
X92436Y250012D02*
D03*
X91044Y251404D02*
D03*
X89652Y252796D02*
D03*
X88261Y254188D02*
D03*
X86869Y255580D02*
D03*
X85477Y256972D02*
D03*
X84085Y258364D02*
D03*
D30*
X68110Y259055D02*
D03*
Y262992D02*
D03*
X51181D02*
D03*
Y259055D02*
D03*
D31*
X108071Y313976D02*
D03*
X110039D02*
D03*
X112008D02*
D03*
X113976D02*
D03*
X108071Y303346D02*
D03*
X110039D02*
D03*
X112008D02*
D03*
X113976D02*
D03*
D33*
X52559Y233661D02*
D03*
X46654D02*
D03*
D34*
X45669Y251350D02*
D03*
Y242350D02*
D03*
X74016Y251350D02*
D03*
Y242350D02*
D03*
X129921Y304219D02*
D03*
Y313219D02*
D03*
X39370Y215130D02*
D03*
Y206130D02*
D03*
X175197Y411587D02*
D03*
Y402587D02*
D03*
X156693Y406102D02*
D03*
Y397102D02*
D03*
X498819Y238020D02*
D03*
Y247020D02*
D03*
X422047Y238020D02*
D03*
Y247020D02*
D03*
X286221Y91957D02*
D03*
Y100957D02*
D03*
X214567Y92350D02*
D03*
Y101350D02*
D03*
D35*
X132316Y274377D02*
D03*
X125952Y280741D02*
D03*
D36*
X55343Y242941D02*
D03*
X64342D02*
D03*
X194264Y392520D02*
D03*
X185264D02*
D03*
D37*
X68623Y277285D02*
D03*
X64447Y273109D02*
D03*
X62718Y282403D02*
D03*
X58542Y278227D02*
D03*
D38*
X120866Y303038D02*
D03*
Y308943D02*
D03*
X76032Y166405D02*
D03*
Y172311D02*
D03*
X65531Y166405D02*
D03*
Y172311D02*
D03*
X55032Y166405D02*
D03*
Y172311D02*
D03*
X165748Y407283D02*
D03*
Y401378D02*
D03*
D39*
X77165Y208437D02*
D03*
Y215917D02*
D03*
X92638Y173933D02*
D03*
Y181413D02*
D03*
X104138Y173933D02*
D03*
Y181413D02*
D03*
X174409Y437992D02*
D03*
Y430512D02*
D03*
Y447441D02*
D03*
Y454921D02*
D03*
X76032Y156102D02*
D03*
Y148622D02*
D03*
X65531Y156102D02*
D03*
Y148622D02*
D03*
X55118Y156102D02*
D03*
Y148622D02*
D03*
D40*
X66437Y207754D02*
D03*
X50098D02*
D03*
X66437Y216219D02*
D03*
X50098D02*
D03*
D41*
X153547Y432350D02*
D03*
X156697D02*
D03*
X131500D02*
D03*
X134650D02*
D03*
D42*
X67506Y287191D02*
D03*
X70290Y289975D02*
D03*
X60159Y305762D02*
D03*
X62943Y308545D02*
D03*
X76167Y296246D02*
D03*
X78951Y299030D02*
D03*
D43*
X67608Y304247D02*
D03*
X62458Y299097D02*
D03*
X71645Y300210D02*
D03*
X66494Y295060D02*
D03*
D44*
X139173Y404528D02*
D03*
X142913D02*
D03*
X146653D02*
D03*
Y413583D02*
D03*
X142913D02*
D03*
X139173D02*
D03*
D45*
X184547Y411221D02*
D03*
Y407480D02*
D03*
Y403740D02*
D03*
X194980D02*
D03*
Y411221D02*
D03*
D46*
X114678Y221371D02*
D03*
X119967Y226660D02*
D03*
D47*
X137823Y195562D02*
D03*
X126270Y207115D02*
D03*
X143809Y201547D02*
D03*
X132255Y213100D02*
D03*
D48*
X69488Y232283D02*
D03*
X76968D02*
D03*
D49*
X427315Y107008D02*
D03*
Y92441D02*
D03*
D93*
X111024Y308661D02*
D03*
D94*
X26181Y250787D02*
D03*
D95*
X15551Y258858D02*
D03*
D96*
X26181Y259055D02*
D03*
D97*
X21732Y267717D02*
D03*
Y277559D02*
D03*
Y286221D02*
D03*
Y296063D02*
D03*
D98*
X25945Y272638D02*
D03*
Y291142D02*
D03*
D99*
X15551Y281890D02*
D03*
Y300394D02*
D03*
D100*
X24291Y304724D02*
D03*
D101*
X306693Y160236D02*
Y199606D01*
Y160236D02*
X317901Y149028D01*
X292520Y204724D02*
X301575D01*
X306693Y199606D01*
D102*
X105512Y202756D02*
X111417Y208661D01*
X89370Y202756D02*
X105512D01*
X111417Y208661D02*
Y218110D01*
X114678Y221371D02*
Y221371D01*
X111417Y218110D02*
X114678Y221371D01*
X132316Y274377D02*
X200394Y342455D01*
Y406693D01*
X215354Y405512D02*
X245669D01*
X200984Y419882D02*
X215354Y405512D01*
X156693Y419882D02*
X200984D01*
X194980Y411221D02*
X195866D01*
X200394Y406693D01*
X125348Y266463D02*
X132316Y273430D01*
X108157Y227893D02*
Y228458D01*
X114678Y221371D02*
Y221371D01*
X108157Y227893D02*
X114678Y221371D01*
X115440Y235544D02*
X115637D01*
X108353Y228458D02*
X115440Y235544D01*
X263779Y362657D02*
Y387402D01*
X263409Y362287D02*
X263779Y362657D01*
X245669Y405512D02*
X263779Y387402D01*
X159187Y423028D02*
Y423045D01*
Y422841D02*
Y423028D01*
X156693Y419882D02*
X161417Y415158D01*
X156693Y406102D02*
Y419882D01*
X153547Y423028D02*
X156693Y419882D01*
X132809Y423232D02*
X134650Y425072D01*
Y432350D01*
X132809Y423028D02*
Y423232D01*
X126378Y422835D02*
X126523Y422979D01*
X131500Y430579D02*
Y432350D01*
X126523Y425601D02*
X131500Y430579D01*
X126523Y422979D02*
Y425601D01*
X156697Y425535D02*
X159187Y423045D01*
X156697Y425535D02*
Y432350D01*
X161417Y414961D02*
Y415158D01*
X153547Y423028D02*
Y432350D01*
D103*
X89370Y209842D02*
Y244162D01*
X65531Y186004D02*
X89370Y209842D01*
X65531Y172311D02*
Y186004D01*
X76378Y194882D02*
X91732Y210236D01*
X76378Y172658D02*
Y194882D01*
X91732Y210236D02*
Y242913D01*
X56665Y289402D02*
X84085Y261983D01*
X84085D01*
X85477Y263375D01*
X53945Y289820D02*
Y297458D01*
X52756Y298648D02*
Y299213D01*
X53945Y289820D02*
X54363Y289402D01*
X52756Y298648D02*
X53945Y297458D01*
X52756Y233327D02*
Y233465D01*
Y228740D02*
Y233327D01*
X53799Y232283D01*
X52559Y233524D02*
X52756Y233327D01*
X77165Y202756D02*
X77165Y202756D01*
X52559Y233661D02*
X52756Y233465D01*
X81890Y232283D02*
X84646Y235039D01*
X95669Y222441D02*
X101285D01*
X103937Y181614D02*
Y190551D01*
Y181614D02*
X104138Y181413D01*
X73228Y293136D02*
Y293307D01*
Y293701D01*
X132316Y273430D02*
Y274377D01*
X106299Y244882D02*
Y251575D01*
Y253688D01*
Y251575D02*
X110236Y247638D01*
X105564Y218162D02*
X105564D01*
X101285Y222441D02*
X105564Y218162D01*
X98425Y229528D02*
X102645Y233747D01*
X102867D01*
X98425Y229528D02*
X98425D01*
X94095D02*
Y234252D01*
Y229528D02*
X99606Y224016D01*
X94095Y234252D02*
X103150Y243307D01*
X103715Y224016D02*
X108157Y228458D01*
X99606Y224016D02*
X103715D01*
X108157Y228458D02*
X108353D01*
X100231Y251404D02*
X103150Y248486D01*
Y243307D02*
Y248486D01*
X92638Y181413D02*
X93307Y182083D01*
Y190551D01*
X80172Y281328D02*
X85039Y276461D01*
Y272164D02*
X89653Y267550D01*
X85039Y272164D02*
Y276461D01*
X83858Y284646D02*
X87008Y281496D01*
Y272979D02*
Y281496D01*
Y272979D02*
X91044Y268942D01*
X146653Y401831D02*
Y404528D01*
X143795Y398973D02*
X146653Y401831D01*
X143795Y372535D02*
Y398973D01*
X139173Y401831D02*
Y404528D01*
Y401831D02*
X142126Y398878D01*
X90152Y318892D02*
X143795Y372535D01*
X142126Y373227D02*
Y398878D01*
X88972Y320072D02*
X142126Y373227D01*
X88972Y274011D02*
Y320072D01*
X90152Y275191D02*
Y318892D01*
Y275191D02*
X92406Y272937D01*
X92617D01*
X93828Y271726D01*
X88972Y274011D02*
X91225Y271757D01*
Y271545D02*
Y271757D01*
Y271545D02*
X92436Y270334D01*
X73622Y280797D02*
X88261Y266159D01*
X137209Y432350D02*
Y438390D01*
X141339Y442520D01*
X168110D02*
X173031Y447441D01*
X141339Y442520D02*
X168110D01*
X173031Y447441D02*
X174409D01*
X173031Y437992D02*
X174409D01*
X170079Y440945D02*
X173031Y437992D01*
X152362Y440945D02*
X170079D01*
X149020Y437602D02*
X152362Y440945D01*
X149020Y432350D02*
Y437602D01*
X143795Y419984D02*
X146653Y417126D01*
Y413583D02*
Y417126D01*
X143795Y419984D02*
Y423921D01*
X146063Y427953D02*
X146795Y428685D01*
Y432094D02*
X147051Y432350D01*
X146795Y428685D02*
Y432094D01*
X144211Y427836D02*
X144765D01*
X144882Y427953D01*
X143370Y428677D02*
X144211Y427836D01*
X144882Y427953D02*
X146063D01*
X143114Y432350D02*
X143370Y432094D01*
Y428677D02*
Y432094D01*
X142520Y437402D02*
X143701D01*
X141146Y434453D02*
Y436028D01*
X142520Y437402D01*
X143701D02*
X145083Y436020D01*
Y432350D02*
Y436020D01*
X143114Y424602D02*
Y432350D01*
Y424602D02*
X143795Y423921D01*
X141146Y424210D02*
X142126Y423230D01*
Y420079D02*
Y423230D01*
X141146Y424210D02*
Y432350D01*
X139508Y417461D02*
X142126Y420079D01*
X139508Y413917D02*
Y417461D01*
X139173Y413583D02*
X139508Y413917D01*
X54363Y289402D02*
X56665D01*
X62943Y308545D02*
X63309D01*
X67608Y304247D01*
X79317Y299030D02*
X81102Y297244D01*
X78951Y299030D02*
X79317D01*
X81102Y296063D02*
Y297244D01*
X75014Y289975D02*
X81102Y296063D01*
X70429Y289835D02*
X71626D01*
X71765Y289975D01*
X75014D01*
X70290D02*
X70429Y289835D01*
X70290Y289975D02*
Y291172D01*
X66494Y294967D02*
Y295060D01*
Y294967D02*
X70290Y291172D01*
X67608Y304247D02*
X72416Y309055D01*
X79921D02*
X84252Y304724D01*
X72416Y309055D02*
X79921D01*
X84252Y296063D02*
Y304724D01*
X73622Y285433D02*
X84252Y296063D01*
X73622Y280797D02*
Y285433D01*
X67645Y283990D02*
X86869Y264767D01*
X67645Y283990D02*
Y287052D01*
X67506Y287191D02*
X67645Y287052D01*
X132255Y213100D02*
X143809Y201547D01*
X126425Y218930D02*
X132255Y213100D01*
X126410Y218930D02*
X126425D01*
X130071Y261173D02*
X130638D01*
X121653Y252756D02*
X130071Y261173D01*
X112799Y252756D02*
X121653D01*
X107191Y258364D02*
X112799Y252756D01*
X119967Y225373D02*
Y226660D01*
Y225373D02*
X126410Y218930D01*
X119967Y226660D02*
Y226660D01*
X124803Y231496D01*
X104407Y255580D02*
X106299Y253688D01*
X105799Y256972D02*
X124803Y237968D01*
Y231496D02*
Y237968D01*
X106299Y244882D02*
X110347Y240834D01*
X100394Y236221D02*
X102867Y233747D01*
Y233747D02*
Y233747D01*
X100394Y236221D02*
Y238583D01*
X104724Y242913D01*
Y249695D01*
X101623Y252796D02*
X104724Y249695D01*
X76032Y172311D02*
X76378Y172658D01*
X91732Y242913D02*
X97439Y248620D01*
X97447D01*
X89370Y244162D02*
X93828Y248620D01*
X76968Y232283D02*
X81890D01*
X84646Y235039D02*
Y245005D01*
X91044Y251404D01*
X77390Y216142D02*
X81496D01*
X77165Y215917D02*
X77390Y216142D01*
X81496D02*
X87008Y221654D01*
Y244584D02*
X92436Y250012D01*
X87008Y221654D02*
Y244584D01*
X50098Y216219D02*
X66437D01*
X76864D01*
X77165Y215917D01*
X39370Y215130D02*
X40459Y216219D01*
X50098D01*
X53799Y232283D02*
X69488D01*
X55343Y236839D02*
Y242941D01*
X52559Y233661D02*
Y234055D01*
X55343Y236839D01*
X45669Y251350D02*
X47075Y252756D01*
X57480D01*
X55343Y242941D02*
X57480Y245079D01*
Y252756D01*
X72610D02*
X74016Y251350D01*
X82666Y254161D02*
X85477Y256972D01*
X79855Y251350D02*
X82666Y254161D01*
X83284Y253543D01*
X84832D02*
X86869Y255580D01*
X83284Y253543D02*
X84832D01*
X74016Y251350D02*
X79855D01*
X83215Y259055D02*
X83906Y258364D01*
X84085D01*
X68110Y259055D02*
X83215D01*
X51181Y259055D02*
X51181Y259055D01*
X26181Y259055D02*
X51181D01*
X51181Y259055D02*
X51181Y259055D01*
X57874D01*
X61811D02*
X68110D01*
X68110Y259055D01*
X113976Y313976D02*
Y317742D01*
X114961Y318727D01*
Y319291D01*
X109449D02*
X109783Y318957D01*
Y314232D02*
X110039Y313976D01*
X109783Y314232D02*
Y318957D01*
X110630Y322835D02*
X112008Y321457D01*
X104331Y319685D02*
X107480Y322835D01*
X110630D01*
X104331Y283858D02*
Y319685D01*
X97447Y271726D02*
X98074Y272353D01*
Y277601D01*
X99749Y271244D02*
Y276915D01*
X107949Y285114D01*
X101249Y269961D02*
Y275659D01*
X110039Y284449D01*
X98839Y270334D02*
X99749Y271244D01*
X98074Y277601D02*
X104331Y283858D01*
X112008Y313976D02*
Y321457D01*
X105799Y263375D02*
X113976Y271552D01*
X103015Y266159D02*
X108268Y271411D01*
Y277953D01*
X101623Y267550D02*
X104331Y270258D01*
Y274016D01*
X100231Y268942D02*
X101249Y269961D01*
X110039Y284449D02*
Y303346D01*
X107949Y285114D02*
Y301969D01*
X113976Y271552D02*
Y303346D01*
X112008Y272368D02*
Y303346D01*
X104407Y264767D02*
X112008Y272368D01*
D104*
X184978Y404171D02*
X187636D01*
X184547Y403740D02*
X184978Y404171D01*
X188976Y405512D02*
Y409842D01*
X187636Y404171D02*
X188976Y405512D01*
X184978Y410789D02*
X188030D01*
X188976Y409842D01*
X184547Y411221D02*
X184978Y410789D01*
X165551Y411122D02*
Y414764D01*
Y407480D02*
Y411122D01*
X174732D01*
X175197Y411587D01*
X165551Y407480D02*
X165748Y407283D01*
X165354Y414961D02*
X165551Y414764D01*
X175563Y411221D02*
X184547D01*
X175197Y411587D02*
X175563Y411221D01*
X194264Y392520D02*
X194980Y393236D01*
Y403740D01*
X175197Y394882D02*
Y401996D01*
Y394882D02*
X177559Y392520D01*
X185264D01*
X161472Y397102D02*
X164530Y400159D01*
Y400553D01*
X165354Y401378D01*
X156693Y397102D02*
X161472D01*
X165354Y401378D02*
X165748D01*
X173988D01*
X175197Y402587D01*
Y401996D02*
X179894Y406693D01*
X179921D01*
X180709Y407480D01*
X184547D01*
X131102Y409055D02*
X140551D01*
X142482Y407124D01*
Y404959D02*
X142913Y404528D01*
X142482Y404959D02*
Y407124D01*
X144095Y409055D02*
X152756D01*
X153453Y408358D01*
X142913Y410236D02*
X144095Y409055D01*
X142913Y410236D02*
Y413583D01*
X55032Y156189D02*
X55118Y156102D01*
X55032Y156189D02*
Y166405D01*
X65531Y156102D02*
Y166405D01*
X76032Y156102D02*
Y166405D01*
X104138Y158673D02*
Y173933D01*
X92638D02*
X92919D01*
X94138Y158673D02*
Y172715D01*
X92919Y173933D02*
X94138Y172715D01*
X233488Y224780D02*
X233858Y224410D01*
X286221Y100957D02*
X286303Y100874D01*
X307665D01*
X214567Y101350D02*
X215043Y100874D01*
X238665D01*
X292520Y224410D02*
X292543Y224433D01*
D105*
X233488Y224780D02*
Y252051D01*
X292543Y224433D02*
Y252051D01*
D106*
X226685Y33945D02*
X251658D01*
X187795Y72835D02*
Y181496D01*
Y72835D02*
X226685Y33945D01*
X187795Y181496D02*
X210630Y204331D01*
X233465D02*
X233858Y204724D01*
X210630Y204331D02*
X233465D01*
D107*
X427118Y107008D02*
X427315D01*
X421921Y112205D02*
X427118Y107008D01*
X414866Y112205D02*
X421921D01*
X404315Y122756D02*
X414866Y112205D01*
D108*
X446815Y247189D02*
D03*
Y231441D02*
D03*
X307665Y85126D02*
D03*
Y100874D02*
D03*
X238665Y85126D02*
D03*
Y100874D02*
D03*
X522815Y231441D02*
D03*
Y247189D02*
D03*
D109*
X459807Y298370D02*
D03*
Y180260D02*
D03*
X320657Y33945D02*
D03*
Y152055D02*
D03*
X251658Y33945D02*
D03*
Y152055D02*
D03*
X535807Y180260D02*
D03*
Y298370D02*
D03*
D110*
X94138Y158673D02*
D03*
Y148673D02*
D03*
X114138Y158673D02*
D03*
X104138D02*
D03*
Y148673D02*
D03*
X114138D02*
D03*
D111*
X132681Y437272D02*
D03*
X155516D02*
D03*
D112*
X161126Y435303D02*
D03*
X127071D02*
D03*
D113*
Y451839D02*
D03*
X161126D02*
D03*
D114*
X263409Y362287D02*
D03*
X233488D02*
D03*
X292543Y252051D02*
D03*
X233488D02*
D03*
D115*
X404315Y142441D02*
D03*
Y122756D02*
D03*
X457315Y89252D02*
D03*
Y152441D02*
D03*
X530315Y89252D02*
D03*
Y152441D02*
D03*
D116*
X401094Y34035D02*
D03*
X379244Y427035D02*
D03*
X474838Y33858D02*
D03*
X452988Y427035D02*
D03*
X548583Y33858D02*
D03*
X526732Y427035D02*
D03*
D117*
X381094Y34035D02*
D03*
X399244Y427035D02*
D03*
X454839Y33858D02*
D03*
X472988Y427035D02*
D03*
X528583Y33858D02*
D03*
X546732Y427035D02*
D03*
D118*
X535039Y371654D02*
D03*
X528937D02*
D03*
X522835D02*
D03*
X526575Y376772D02*
D03*
X532677D02*
D03*
X538779D02*
D03*
X540551Y371654D02*
D03*
X546654D02*
D03*
X543898Y376772D02*
D03*
X535039Y360630D02*
D03*
X528937D02*
D03*
X522835D02*
D03*
X526575Y365748D02*
D03*
X532677D02*
D03*
X538779D02*
D03*
X540551Y360630D02*
D03*
X546654D02*
D03*
X543898Y365748D02*
D03*
X534252Y350394D02*
D03*
X528150D02*
D03*
X522047D02*
D03*
X525787Y355512D02*
D03*
X531890D02*
D03*
X537992D02*
D03*
X539764Y350394D02*
D03*
X545866D02*
D03*
X543110Y355512D02*
D03*
X462205Y372835D02*
D03*
X456102D02*
D03*
X450000D02*
D03*
X453740Y377953D02*
D03*
X459842D02*
D03*
X465945D02*
D03*
X467717Y372835D02*
D03*
X473819D02*
D03*
X471063Y377953D02*
D03*
X462205Y361811D02*
D03*
X456102D02*
D03*
X450000D02*
D03*
X453740Y366929D02*
D03*
X459842D02*
D03*
X465945D02*
D03*
X467717Y361811D02*
D03*
X473819D02*
D03*
X471063Y366929D02*
D03*
X461417Y351575D02*
D03*
X455315D02*
D03*
X449213D02*
D03*
X452953Y356693D02*
D03*
X459055D02*
D03*
X465158D02*
D03*
X466929Y351575D02*
D03*
X473032D02*
D03*
X470276Y356693D02*
D03*
X388583Y370866D02*
D03*
X382480D02*
D03*
X376378D02*
D03*
X380118Y375984D02*
D03*
X386221D02*
D03*
X392323D02*
D03*
X394094Y370866D02*
D03*
X400197D02*
D03*
X397441Y375984D02*
D03*
X388583Y359842D02*
D03*
X382480D02*
D03*
X376378D02*
D03*
X380118Y364961D02*
D03*
X386221D02*
D03*
X392323D02*
D03*
X394094Y359842D02*
D03*
X400197D02*
D03*
X397441Y364961D02*
D03*
X387795Y349606D02*
D03*
X381693D02*
D03*
X375590D02*
D03*
X379331Y354724D02*
D03*
X385433D02*
D03*
X391535D02*
D03*
X393307Y349606D02*
D03*
X399409D02*
D03*
X396654Y354724D02*
D03*
X427165Y435827D02*
D03*
X421063D02*
D03*
X414961D02*
D03*
X418701Y440945D02*
D03*
X424803D02*
D03*
X430905D02*
D03*
X432677Y435827D02*
D03*
X438779D02*
D03*
X436024Y440945D02*
D03*
X427165Y424803D02*
D03*
X421063D02*
D03*
X414961D02*
D03*
X418701Y429921D02*
D03*
X424803D02*
D03*
X430905D02*
D03*
X432677Y424803D02*
D03*
X438779D02*
D03*
X436024Y429921D02*
D03*
X426378Y414567D02*
D03*
X420276D02*
D03*
X414173D02*
D03*
X417913Y419685D02*
D03*
X424016D02*
D03*
X430118D02*
D03*
X431890Y414567D02*
D03*
X437992D02*
D03*
X435236Y419685D02*
D03*
X507677Y420472D02*
D03*
X510433Y415354D02*
D03*
X504331D02*
D03*
X502559Y420472D02*
D03*
X496457D02*
D03*
X490354D02*
D03*
X486614Y415354D02*
D03*
X492717D02*
D03*
X498819D02*
D03*
X508465Y430709D02*
D03*
X511221Y425591D02*
D03*
X505118D02*
D03*
X503346Y430709D02*
D03*
X497244D02*
D03*
X491142D02*
D03*
X487402Y425591D02*
D03*
X493504D02*
D03*
X499606D02*
D03*
X508465Y441732D02*
D03*
X511221Y436614D02*
D03*
X505118D02*
D03*
X503346Y441732D02*
D03*
X497244D02*
D03*
X491142D02*
D03*
X487402Y436614D02*
D03*
X493504D02*
D03*
X499606D02*
D03*
X263386Y11417D02*
D03*
X257283D02*
D03*
X251181D02*
D03*
X254921Y16535D02*
D03*
X261024D02*
D03*
X267126D02*
D03*
X268898Y11417D02*
D03*
X275000D02*
D03*
X272244Y16535D02*
D03*
X293701Y11417D02*
D03*
X287598D02*
D03*
X281496D02*
D03*
X285236Y16535D02*
D03*
X291339D02*
D03*
X297441D02*
D03*
X299213Y11417D02*
D03*
X305315D02*
D03*
X302559Y16535D02*
D03*
X323622Y11417D02*
D03*
X317520D02*
D03*
X311417D02*
D03*
X315158Y16535D02*
D03*
X321260D02*
D03*
X327362D02*
D03*
X329134Y11417D02*
D03*
X335236D02*
D03*
X332480Y16535D02*
D03*
X353543Y11417D02*
D03*
X347441D02*
D03*
X341339D02*
D03*
X345079Y16535D02*
D03*
X351181D02*
D03*
X357283D02*
D03*
X359055Y11417D02*
D03*
X365158D02*
D03*
X362402Y16535D02*
D03*
X504331Y44094D02*
D03*
X498228D02*
D03*
X492126D02*
D03*
X495866Y49213D02*
D03*
X501968D02*
D03*
X508071D02*
D03*
X509842Y44094D02*
D03*
X515945D02*
D03*
X513189Y49213D02*
D03*
X503150Y33071D02*
D03*
X497047D02*
D03*
X490945D02*
D03*
X494685Y38189D02*
D03*
X500787D02*
D03*
X506890D02*
D03*
X508661Y33071D02*
D03*
X514764D02*
D03*
X512008Y38189D02*
D03*
X502756Y22835D02*
D03*
X496654D02*
D03*
X490551D02*
D03*
X494291Y27953D02*
D03*
X500394D02*
D03*
X506496D02*
D03*
X508268Y22835D02*
D03*
X514370D02*
D03*
X511614Y27953D02*
D03*
X501575Y12205D02*
D03*
X495472D02*
D03*
X489370D02*
D03*
X493110Y17323D02*
D03*
X499213D02*
D03*
X505315D02*
D03*
X507087Y12205D02*
D03*
X513189D02*
D03*
X510433Y17323D02*
D03*
X428346Y44488D02*
D03*
X422244D02*
D03*
X416142D02*
D03*
X419882Y49606D02*
D03*
X425984D02*
D03*
X432087D02*
D03*
X433858Y44488D02*
D03*
X439961D02*
D03*
X437205Y49606D02*
D03*
X427559Y34252D02*
D03*
X421457D02*
D03*
X415354D02*
D03*
X419095Y39370D02*
D03*
X425197D02*
D03*
X431299D02*
D03*
X433071Y34252D02*
D03*
X439173D02*
D03*
X436417Y39370D02*
D03*
X427165Y24016D02*
D03*
X421063D02*
D03*
X414961D02*
D03*
X418701Y29134D02*
D03*
X424803D02*
D03*
X430905D02*
D03*
X432677Y24016D02*
D03*
X438779D02*
D03*
X436024Y29134D02*
D03*
Y17717D02*
D03*
X438779Y12598D02*
D03*
X432677D02*
D03*
X430905Y17717D02*
D03*
X424803D02*
D03*
X418701D02*
D03*
X414961Y12598D02*
D03*
X421063D02*
D03*
X427165D02*
D03*
X89370Y202756D02*
D03*
X70079Y330315D02*
D03*
X52756Y299213D02*
D03*
Y330315D02*
D03*
X52362Y202756D02*
D03*
X77165Y202756D02*
D03*
X52756Y228740D02*
D03*
X95669Y222441D02*
D03*
X179526Y114173D02*
D03*
X199606D02*
D03*
X73228Y293701D02*
D03*
X110236Y247638D02*
D03*
X179526Y102734D02*
D03*
X82284Y232677D02*
D03*
X98425Y229528D02*
D03*
X199606Y102362D02*
D03*
Y106299D02*
D03*
Y110236D02*
D03*
X80172Y281328D02*
D03*
X83858Y284646D02*
D03*
X131102Y409055D02*
D03*
X132809Y423028D02*
D03*
X126378Y422835D02*
D03*
X159187Y423028D02*
D03*
X153547D02*
D03*
X114961Y319291D02*
D03*
X109449D02*
D03*
X108268Y277953D02*
D03*
X104331Y274016D02*
D03*
D119*
X188583Y330315D02*
D03*
X165748Y85039D02*
D03*
X238189Y120079D02*
D03*
X307087D02*
D03*
X103937Y190551D02*
D03*
X142913Y264173D02*
D03*
X93307Y190551D02*
D03*
D120*
X95638Y260173D02*
D03*
X92158Y263653D02*
D03*
X99118Y256693D02*
D03*
X95638Y253214D02*
D03*
X92158Y256693D02*
D03*
X88678Y260173D02*
D03*
X95638Y267133D02*
D03*
X99118Y263653D02*
D03*
X102597Y260173D02*
D03*
M02*
